<svg width="68" height="90" viewBox="0 0 68 90" fill="none" xmlns="http://www.w3.org/2000/svg">
<path d="M33.7355 2.89819C50.6226 2.89819 64.3023 16.5779 64.3023 33.465C64.3023 16.5779 50.6226 2.89819 33.7355 2.89819C16.8485 2.89819 3.16876 16.5779 3.16876 33.465C3.16876 16.5779 16.8485 2.89819 33.7355 2.89819Z" fill="#48AC49"/>
<path d="M33.7356 66.9687C52.207 66.9687 67.2006 51.9365 67.2006 33.5037C67.2006 15.0322 52.207 0 33.7356 0C15.2641 0 0.270538 15.0322 0.270538 33.465C0.270538 51.9365 15.2641 66.9687 33.7356 66.9687ZM3.32335 36.5951C3.20742 35.5517 3.16878 34.5084 3.16878 33.465C3.16878 16.5779 16.8485 2.89824 33.7356 2.89824C50.6226 2.89824 64.3023 16.5779 64.3023 33.465C64.3023 34.5084 64.2637 35.5517 64.1478 36.5951C64.1091 37.0975 64.0318 37.6385 63.9545 38.1408C62.8725 45.1353 59.4333 51.3568 54.487 55.9554C54.4483 55.994 54.4097 56.0326 54.371 56.0713C54.3324 56.1099 54.2937 56.1486 54.2551 56.1872C50.3521 59.7037 45.5217 62.2542 40.189 63.3748C39.7253 63.4908 39.2615 63.5681 38.7592 63.6453C38.7205 63.6453 38.6819 63.6454 38.6432 63.684C38.6432 63.684 38.6432 63.684 38.6046 63.684C38.5273 63.684 38.4114 63.7226 38.3341 63.7226C36.8657 63.9545 35.3586 64.0704 33.8128 64.0704C27.514 64.0704 21.6402 62.1769 16.7712 58.8922C16.3848 58.6217 15.9983 58.3512 15.6505 58.0807C15.6119 58.0421 15.5732 58.0421 15.5346 58.0034C15.2255 57.7716 14.9163 57.5397 14.6072 57.2692C14.5299 57.1919 14.4526 57.1533 14.3367 57.076C8.65611 52.4002 4.71451 45.7149 3.55521 38.1408C3.43928 37.6385 3.36199 37.1361 3.32335 36.5951Z" fill="#48AC49"/>
<path d="M14.298 57.076C8.61741 52.4002 4.67581 45.7149 3.51651 38.1409C4.67581 45.7149 8.61741 52.4002 14.298 57.076Z" fill="#48AC49"/>
<path d="M54.4869 55.9554C59.4719 51.3568 62.9111 45.1353 63.9545 38.1409C62.8725 45.1353 59.4332 51.3568 54.4869 55.9554Z" fill="#48AC49"/>
<path d="M3.16876 33.4651C3.16876 34.5085 3.20741 35.5518 3.32334 36.5952C3.20741 35.5905 3.16876 34.5471 3.16876 33.4651Z" fill="white"/>
<path d="M16.1529 19.0124C17.7759 18.3555 19.1284 18.8192 19.5535 19.1284C19.5535 18.5874 20.2491 16.7325 22.1426 16.1915C24.2679 15.5732 26.0455 16.1528 27.6685 19.5921L27.2435 15.1868C27.2435 15.1868 14.4139 15.4573 14.2594 15.4573C14.1821 15.4573 13.4865 18.5101 12.8296 21.5243C13.1773 21.2924 13.5638 21.0992 13.9889 20.906C14.4912 20.1331 15.1868 19.4375 16.1529 19.0124Z" fill="white"/>
<path d="M64.3023 33.4651C64.3023 34.5085 64.2636 35.5518 64.1477 36.5952C64.2636 35.5905 64.3023 34.5471 64.3023 33.4651Z" fill="white"/>
<path d="M14.298 57.0759C13.3319 54.0231 12.2886 49.5405 12.3272 45.2511C10.9747 44.826 9.69946 43.8213 8.81067 42.5074C7.26494 40.2275 6.91715 37.2133 7.72866 34.4696C7.7673 34.3923 7.80595 34.2764 7.80595 34.1991C7.80595 34.0832 7.80595 33.9286 7.7673 33.774C6.29886 29.1369 8.81067 24.036 12.7136 21.5628C12.7523 21.5241 12.8296 21.4855 12.8682 21.4855C13.5638 18.4713 14.2594 15.4572 14.298 15.4572C14.4139 15.4572 27.2821 15.1867 27.2821 15.1867L27.7072 19.592C27.7845 19.7852 27.8618 19.9398 27.9777 20.133C28.3255 20.133 28.6733 20.0944 28.9824 20.0557C32.0352 19.6693 34.6243 18.0076 37.4066 16.8483C39.8025 15.8436 42.5462 14.9162 45.1353 14.607C45.1739 14.607 45.2512 14.607 45.2898 14.607C46.5651 14.4138 47.7244 14.3752 48.7677 14.4138C50.3908 14.4524 52.0138 14.7229 53.5209 15.5731C54.7961 16.23 55.7622 17.1188 56.4577 18.0849C56.6123 18.2781 56.7669 18.4713 56.9215 18.7032C58.4285 20.8672 58.5831 23.7655 57.5397 26.2C57.5784 26.741 57.5784 27.3979 57.5011 28.0935C57.4625 28.8277 57.3465 29.7165 57.0374 30.7599C56.8055 31.726 56.4964 32.6147 56.1486 33.3876C54.9893 35.8994 53.5209 37.9089 51.4728 39.7251C49.3474 41.6573 46.7969 43.3576 44.2078 44.6328C43.435 45.0192 42.6235 45.3284 41.812 45.6375C44.4397 46.6809 46.8356 48.5744 48.961 50.3906C50.8545 52.0523 52.748 53.9072 54.4483 55.9939C59.4333 51.3953 62.8725 45.1738 63.9159 38.1794C63.9932 37.677 64.0704 37.1746 64.1091 36.6336C64.225 35.5903 64.2637 34.5469 64.2637 33.5035C64.2637 16.6165 50.584 2.93677 33.6969 2.93677C16.8098 2.93677 3.16876 16.5778 3.16876 33.4649C3.16876 34.5083 3.20741 35.5516 3.32334 36.595C3.36198 37.0974 3.43926 37.6384 3.51655 38.1407C4.67585 45.7148 8.61745 52.4001 14.298 57.0759Z" fill="white"/>
<path d="M33.7355 64.0705C27.4367 64.0705 21.5629 62.177 16.6939 58.8923C21.5629 62.1384 27.4367 64.0705 33.7355 64.0705C35.2813 64.0705 36.7883 63.9546 38.2568 63.7227C36.7883 63.9546 35.2813 64.0705 33.7355 64.0705Z" fill="#379537"/>
<path d="M7.7673 33.8127C7.7673 33.9673 7.7673 34.0832 7.80595 34.2378C7.80595 34.1992 7.84459 34.1219 7.84459 34.0832C7.80595 33.9673 7.80595 33.89 7.7673 33.8127Z" fill="#379537"/>
<path d="M20.5195 45.7536C18.8965 44.9034 14.3753 42.1984 13.5251 41.1937C13.1773 40.8459 12.9068 40.4981 12.675 40.1503C12.3658 41.2323 11.8248 42.1211 10.7428 42.0825C8.92658 42.0052 8.38558 39.1456 8.57879 37.1361C9.35166 30.219 17.003 29.3302 19.4762 29.137C19.9013 29.0983 20.249 28.8278 20.4036 28.4414C20.365 28.4414 20.2877 28.48 20.2104 28.48C15.7278 28.5187 10.0086 30.3349 8.61744 34.4697C7.88321 36.6338 7.84457 40.3822 9.62216 42.7007C10.6269 44.0533 12.2499 45.2126 14.4912 45.058C15.3027 44.9807 16.8098 44.3238 16.8098 44.3238C13.3319 48.0722 15.921 55.8394 16.4234 57.7716C16.5006 58.1194 16.6166 58.5058 16.7325 58.8923C21.6016 62.1769 27.4753 64.0704 33.7742 64.0704C35.3199 64.0704 36.827 63.9545 38.2954 63.7227C36.6338 60.9403 34.7402 58.3899 32.6149 55.9554C29.021 51.9365 25.2727 48.2654 20.5195 45.7536Z" fill="#379537"/>
<path d="M24.8476 22.7607C24.7703 22.7994 24.7316 22.838 24.6544 22.8767C24.693 22.838 24.7703 22.7994 24.8476 22.7607Z" fill="#379537"/>
<path d="M13.1387 24.5771C13.0614 24.8089 13.0228 24.9635 13.0228 24.9635C13.0228 24.9635 12.9841 23.3405 13.6411 21.7561C13.3319 21.9493 13.0228 22.1425 12.7136 22.3744C12.134 25.0408 11.593 27.4753 11.593 27.4753L14.2594 28.6732C14.4912 28.596 14.6844 28.5573 14.9163 28.5187C14.298 27.9777 13.1387 26.7411 13.1387 24.5771Z" fill="#379537"/>
<path d="M27.7845 20.4809L27.8231 20.9446C27.8231 20.9446 27.7845 20.9446 27.7845 20.9832C28.2482 20.79 28.7892 20.5968 29.3688 20.4036C28.8278 20.4422 28.2868 20.4809 27.7845 20.4809Z" fill="#379537"/>
<path d="M12.675 22.3745C9.23574 24.925 6.91714 29.2144 8.07644 33.4651C9.27438 30.7601 11.6316 29.3689 14.2207 28.6734L11.5543 27.4754C11.5543 27.4754 12.0953 25.0409 12.675 22.3745Z" fill="#379537"/>
<path d="M13.5251 37.0974C12.9455 38.3727 14.8777 38.5272 14.8777 38.5272C16.4234 38.6045 17.9305 38.7977 19.4762 38.6818C24.4225 38.3726 29.4461 37.8703 34.3925 36.9042C35.6291 36.6337 36.8656 36.4018 38.0636 36.0927C40.7686 35.4358 43.3963 34.6243 45.9468 33.6195C48.0335 32.808 50.0043 31.8419 51.9365 30.7213C54.1391 29.4461 56.4964 27.9003 57.3465 25.4658C56.4964 27.2048 54.5256 29.1369 50.4294 30.9145C46.0241 32.808 36.9816 35.9381 24.4998 36.8656C16.5007 37.4839 13.6797 36.0927 13.4092 36.5951C13.6024 36.4018 13.7184 36.5951 13.5251 37.0974Z" fill="#379537"/>
<path d="M40.1503 63.3749C45.4831 62.2542 50.3135 59.7038 54.2165 56.1873C50.2748 59.7038 45.4831 62.2542 40.1503 63.3749Z" fill="#A9CE7E"/>
<path d="M50.0043 51.7046C47.6084 49.5019 44.517 46.9515 41.4255 45.7149C39.7252 46.3332 38.0249 46.9128 36.4019 47.6857C36.2859 47.7243 36.2087 47.6857 36.17 47.6084C35.8222 47.5311 37.1361 45.9081 38.9523 45.0966C48.6518 40.8072 52.1683 35.5131 52.7093 34.0446C53.0571 33.0786 48.0721 37.5225 39.1842 39.416C23.5723 42.7394 18.626 40.1116 17.544 40.7686C16.6166 41.3482 21.0992 42.5075 25.5431 46.1013C29.9871 49.7338 36.6724 57.5011 38.6432 60.7471C39.1842 61.6745 39.6866 62.5247 40.1116 63.3362C45.4444 62.2155 50.2748 59.6651 54.1778 56.1485C52.9025 54.6028 51.5114 53.0957 50.0043 51.7046Z" fill="#A9CE7E"/>
<path d="M15.5732 58.0808C15.9597 58.3513 16.3075 58.6218 16.6939 58.8923C16.3075 58.6218 15.921 58.3513 15.5732 58.0808Z" fill="#318B43"/>
<path d="M16.8098 44.3237C16.8098 44.3237 15.6505 45.058 14.7617 45.3285C14.6844 45.3671 14.5685 45.3671 14.4912 45.4057C13.757 48.8836 14.2594 53.5981 15.5732 58.1194C15.9597 58.3899 16.3075 58.6604 16.6939 58.9309C16.578 58.5444 16.5007 58.158 16.3847 57.8102C15.921 55.8394 13.2933 48.0721 16.8098 44.3237Z" fill="#318B43"/>
<path d="M56.4191 18.0462C55.7235 17.0802 54.7961 16.1914 53.4822 15.5344C54.5256 16.0754 55.5303 16.8869 56.4191 18.0462Z" fill="#49A238"/>
<path d="M48.8064 17.235C52.5548 16.8099 56.3032 18.2784 57.5784 21.6017C57.2693 19.94 56.4191 18.3556 55.0666 17.235C52.7867 15.3415 50.4681 14.8391 47.9563 14.8391C45.3285 14.8391 42.5462 15.5347 40.0344 16.3076C37.5612 17.0804 35.3972 18.4329 33.0013 19.399C33.0786 19.399 33.1559 19.399 33.2332 19.3604C35.2813 19.2444 46.3332 17.5055 48.8064 17.235Z" fill="#49A238"/>
<path d="M48.7291 14.3753C47.6857 14.3367 46.5264 14.414 45.2512 14.5685C46.4105 14.4526 47.5698 14.3753 48.7291 14.3753Z" fill="#49A238"/>
<path d="M20.5196 28.0936C20.5196 28.1323 20.5196 28.1323 20.5196 28.0936C20.5196 28.0936 20.5582 28.055 20.5582 28.0164C20.5196 28.055 20.5196 28.0936 20.5196 28.0936Z" fill="#49A238"/>
<path d="M19.4762 29.1371C17.003 29.3303 9.35166 30.2191 8.57879 37.1362C8.34693 39.107 8.88794 42.0052 10.7428 42.0825C11.8248 42.1212 12.3658 41.2324 12.675 40.1504C12.018 38.9911 12.0953 37.7158 13.4092 36.5952C13.7183 36.0928 16.5393 37.4453 24.4998 36.8657C36.9815 35.9383 46.0241 32.8082 50.4294 30.9146C54.5642 29.1371 56.4964 27.2049 57.3465 25.466C57.5011 25.0409 57.617 24.6158 57.6557 24.1521C57.7716 23.3019 57.7329 22.4518 57.5784 21.6016C56.3031 18.2783 52.5548 16.8099 48.8064 17.235C46.3332 17.5055 35.2812 19.2444 33.2718 19.399C33.1945 19.399 33.1172 19.399 33.0399 19.4376C32.8854 19.5149 32.7694 19.5535 32.6149 19.6308C31.5329 20.0559 30.4508 20.3264 29.3688 20.4423C28.7892 20.6356 28.2482 20.8288 27.7845 21.022C27.7072 21.0606 27.6299 21.0993 27.4753 21.1766C27.0889 21.3698 26.432 21.7176 25.7364 22.1813C25.4272 22.3745 25.1567 22.5677 24.8476 22.7996C24.7703 22.8382 24.7317 22.8769 24.6544 22.9155C24.6157 22.9541 24.5771 22.9928 24.4998 23.0314C24.3066 23.186 24.1134 23.3406 23.9201 23.5338L23.8815 23.5724C23.8429 23.6111 23.7656 23.6884 23.7269 23.727C23.6883 23.7657 23.6496 23.8043 23.611 23.8429C22.2198 25.1568 21.331 26.5866 20.8673 27.4368C20.7128 27.7459 20.5968 27.9778 20.5195 28.0937C20.5195 28.1323 20.4809 28.1323 20.4809 28.171C20.5582 28.2869 20.5195 28.4415 20.365 28.4801C20.249 28.8279 19.8626 29.0984 19.4762 29.1371ZM50.3907 24.925C51.2022 24.6158 52.0524 24.925 52.3229 25.6205C52.5934 26.3161 51.5887 26.0456 50.7772 26.3547C49.9657 26.6639 49.6952 27.4368 49.4247 26.7412C49.1542 26.0842 49.5792 25.2341 50.3907 24.925Z" fill="#49A238"/>
<path d="M23.3405 24.0361C22.7995 24.5771 22.3358 25.1181 21.988 25.5818C21.9493 25.6204 21.9107 25.6977 21.872 25.7364C21.4856 26.316 21.1378 26.9343 20.8673 27.398C21.331 26.5479 22.2198 25.1181 23.611 23.8042L23.5337 23.8428C23.4564 23.8815 23.3791 23.9588 23.3405 24.0361Z" fill="#49A238"/>
<path d="M57.4625 28.0164C57.3852 28.8665 57.2306 29.7939 56.9988 30.6827C57.3079 29.6394 57.4239 28.7119 57.4625 28.0164Z" fill="#96C25E"/>
<path d="M38.025 36.0928C36.827 36.3633 35.5904 36.6338 34.3539 36.9043C35.5904 36.6338 36.7884 36.3633 38.025 36.0928Z" fill="#96C25E"/>
<path d="M38.7205 63.6453C39.1842 63.568 39.6866 63.4907 40.1503 63.3748C39.6479 63.4907 39.1842 63.568 38.7205 63.6453Z" fill="#96C25E"/>
<path d="M25.5432 46.1399C21.0992 42.5074 16.6166 41.3481 17.544 40.7685C18.626 40.1115 23.5724 42.7393 39.1842 39.416C48.0722 37.5224 53.0571 33.0785 52.7093 34.0446C52.1683 35.513 48.6518 40.8071 38.9524 45.0965C37.1361 45.908 35.7836 47.531 36.17 47.6083C36.1314 47.531 36.1314 47.4538 36.2473 47.3765C38.4886 46.024 41.1164 45.367 43.4736 44.285C46.1013 43.0871 48.4586 41.6959 50.8158 39.5705C52.8639 37.7157 54.6029 35.513 55.6462 32.9626C56.7669 30.2575 56.4577 28.6345 56.3032 28.0935C56.0326 28.4027 55.7621 28.7118 55.453 28.9823C53.9459 30.3348 52.091 31.4168 50.2748 32.3443C47.9562 33.5422 45.4831 34.5469 42.9712 35.3584C39.1069 36.595 35.1653 37.4838 31.1464 38.1021C28.4028 38.5272 25.6591 38.8363 22.9154 39.1068C21.447 39.2227 19.708 39.2614 18.201 39.2227C17.1576 39.2227 15.4573 38.9136 14.4139 38.9136C13.9888 38.9909 13.2546 39.2614 13.7183 40.382C14.1821 41.1549 14.9163 41.8118 15.5732 42.3528C16.8484 43.3576 18.2396 44.1691 19.6694 44.9033C22.7222 46.5263 25.5432 48.2653 28.055 50.6225C32.1125 54.4095 35.8995 58.7762 38.7205 63.6066C39.1842 63.5293 39.6866 63.452 40.1503 63.3361C39.7252 62.5246 39.2229 61.6744 38.6818 60.747C36.6724 57.5396 29.9871 49.7723 25.5432 46.1399Z" fill="#96C25E"/>
<path d="M38.2567 63.7227C38.334 63.7227 38.45 63.6841 38.5272 63.6841C38.45 63.6841 38.3727 63.7227 38.2567 63.7227Z" fill="#2E6D2F"/>
<path d="M25.7364 48.9222C23.5723 47.2606 21.2924 45.9467 18.4328 44.4396C17.0803 43.7441 15.8051 42.8553 14.8776 41.9665C14.839 41.9278 14.8003 41.9278 14.7617 41.8892C14.9549 42.1597 15.1095 42.3529 15.1095 42.3529C14.4912 42.0051 13.9502 41.58 13.5251 41.1936C14.3753 42.1983 18.8965 44.9034 20.5195 45.7535C25.3113 48.2653 29.021 51.9364 32.5762 55.9553C34.7016 58.3898 36.6338 60.9403 38.2568 63.7226C38.3341 63.7226 38.45 63.6839 38.5273 63.6839C38.0635 62.9497 37.5612 62.1769 37.0202 61.404C35.629 59.4332 32.4216 54.5255 25.7364 48.9222Z" fill="#2E6D2F"/>
<path d="M25.7364 48.9224C32.4217 54.5256 35.6291 59.4333 37.0588 61.3655C37.5999 62.1383 38.1022 62.9112 38.5659 63.6454C38.5659 63.6454 38.5659 63.6454 38.6046 63.6454C37.3294 61.4814 35.7836 59.2015 33.9674 57.0761C30.8373 53.3663 28.3641 50.9318 25.7364 48.9224Z" fill="#2E6D2F"/>
<path d="M14.839 41.9665C14.8004 41.9279 14.7617 41.8892 14.6844 41.8506L14.7231 41.8892C14.8004 41.9279 14.8004 41.9665 14.839 41.9665Z" fill="#2E6D2F"/>
<path d="M25.7364 48.9223C25.6977 48.8837 25.6977 48.8837 25.6591 48.845C22.4517 46.1787 18.0077 44.5556 14.8776 41.9666C15.8051 42.8167 17.0803 43.7441 18.4328 44.4397C21.2924 45.9468 23.5723 47.2993 25.7364 48.9223Z" fill="#2E6D2F"/>
<path d="M38.5659 63.6839C38.6046 63.6839 38.6432 63.6839 38.6818 63.6453C38.6818 63.6453 38.6046 63.6839 38.5659 63.6839Z" fill="#2E6D2F"/>
<path d="M28.055 50.6613C25.5432 48.3041 22.7222 46.5652 19.6694 44.9422C18.2396 44.1693 16.8485 43.3578 15.5732 42.3917C14.9163 41.8507 14.1821 41.1938 13.7184 40.4209C13.7184 40.4595 13.7184 40.4595 13.757 40.4982C13.8343 40.6141 14.3366 41.387 14.7231 41.8893C14.7617 41.928 14.8004 41.9666 14.8776 42.0053C18.0077 44.5944 22.4517 46.2174 25.6591 48.8838C25.6977 48.9224 25.6977 48.9224 25.7364 48.961C28.3641 50.9705 30.8373 53.405 33.9674 57.1148C35.7836 59.2788 37.3293 61.5201 38.6046 63.6841C38.6432 63.6841 38.6819 63.6841 38.7205 63.6455C35.8995 58.8151 32.1125 54.4484 28.055 50.6613Z" fill="#2E6D2F"/>
<path d="M54.3324 56.0713C54.371 56.0326 54.4097 55.994 54.4483 55.9553C54.4483 55.994 54.371 56.0326 54.3324 56.0713Z" fill="#629441"/>
<path d="M48.845 50.352C50.7772 51.8977 52.6707 53.9072 54.3324 56.0712C54.371 56.0325 54.4097 55.9939 54.4483 55.9553C52.748 53.8685 50.8545 52.0136 48.961 50.352C46.8356 48.5358 44.4397 46.6422 41.812 45.5989C41.7733 45.5989 41.7347 45.6375 41.696 45.6375C42.237 45.7534 44.0533 46.449 48.845 50.352Z" fill="#629441"/>
<path d="M48.845 50.3522C44.0533 46.4492 42.237 45.7536 41.696 45.6377C41.6574 45.6377 41.6574 45.6377 41.6187 45.6763C42.237 45.9468 45.4831 47.4539 51.0477 52.6708C52.2843 53.8301 53.3276 54.9507 54.2937 56.11C52.6707 53.8687 50.7772 51.8979 48.845 50.3522Z" fill="#629441"/>
<path d="M54.2164 56.1872C54.2551 56.1486 54.2937 56.1099 54.3324 56.0713C54.2937 56.1099 54.2551 56.1486 54.2164 56.1872Z" fill="#629441"/>
<path d="M51.0863 52.6707C45.5603 47.4539 42.3143 45.9468 41.6574 45.6763C41.5801 45.7149 41.5028 45.7149 41.4642 45.7536C44.5556 46.9901 47.6471 49.5406 50.043 51.7433C51.55 53.1344 52.9412 54.6028 54.2164 56.2259C54.2551 56.1872 54.2937 56.1486 54.3324 56.1099C53.3663 54.9506 52.2843 53.7913 51.0863 52.6707Z" fill="#629441"/>
<path d="M14.298 57.0759C14.3753 57.1532 14.4526 57.1919 14.5685 57.2691C14.4526 57.1919 14.3753 57.1532 14.298 57.0759Z" fill="#2E6D2F"/>
<path d="M12.5204 47.4152C12.5204 47.1447 12.5204 46.8356 12.559 46.5264C12.4431 45.9082 12.3658 45.4831 12.3272 45.2512H12.2885C12.2499 49.5793 13.3319 54.0232 14.2593 57.076C14.3366 57.1533 14.4139 57.192 14.5298 57.2693C13.2546 53.7914 12.5204 50.584 12.5204 47.4152Z" fill="#2E6D2F"/>
<path d="M12.3272 45.2512C12.3658 45.4831 12.4431 45.9468 12.559 46.5264C12.5977 45.9854 12.675 45.5217 12.7136 45.3285C12.559 45.3285 12.4431 45.2899 12.3272 45.2512Z" fill="#2E6D2F"/>
<path d="M14.5298 57.269C14.839 57.5009 15.1481 57.7714 15.4573 58.0033C15.1481 57.7714 14.839 57.5395 14.5298 57.269Z" fill="#2E6D2F"/>
<path d="M12.5591 46.5264C12.5204 46.7969 12.5204 47.106 12.5204 47.4152C12.5204 50.5839 13.2546 53.7913 14.5685 57.2692C14.8777 57.501 15.1868 57.7715 15.4959 58.0034C14.7617 55.994 14.1821 54.2937 13.9502 53.3662C13.4092 51.4727 12.8682 48.3426 12.5591 46.5264Z" fill="#2E6D2F"/>
<path d="M15.4573 58.0034C15.4959 58.0421 15.5346 58.0421 15.5732 58.0807C15.5346 58.0421 15.4959 58.0421 15.4573 58.0034Z" fill="#2E6D2F"/>
<path d="M14.4912 45.3673C13.9115 45.4832 13.2932 45.4832 12.7136 45.3286C12.675 45.5218 12.5977 45.9855 12.559 46.5266C12.8682 48.3428 13.4478 51.4342 13.9115 53.3278C14.1434 54.2552 14.723 55.9555 15.4573 57.9649C15.4959 58.0036 15.5345 58.0036 15.5732 58.0422C14.2593 53.5983 13.757 48.8451 14.4912 45.3673Z" fill="#2E6D2F"/>
<path d="M13.1774 38.4501C13.3706 38.4888 13.6797 38.4888 14.0662 38.5274C14.1048 38.4888 14.1821 38.4888 14.2207 38.4888C14.4526 38.4888 14.6458 38.4888 14.8777 38.4888C14.8777 38.4888 12.9455 38.3342 13.5252 37.059C13.757 36.5953 13.6024 36.3634 13.4092 36.5566C13.2546 36.8658 13.1774 37.5227 13.0614 38.3342C13.0614 38.3342 13.1001 38.3728 13.1774 38.4501Z" fill="#2E6D2F"/>
<path d="M12.675 40.1117C12.8682 40.4595 13.1773 40.8459 13.5251 41.1551C13.4479 41.0391 12.9455 40.2663 12.9455 38.9524C12.8296 39.3775 12.7523 39.7639 12.675 40.1117Z" fill="#2E6D2F"/>
<path d="M14.0661 38.5272C13.6797 38.4886 13.3706 38.45 13.1773 38.45C13.216 38.4886 13.2546 38.5659 13.2546 38.6045C13.2546 38.9137 13.2933 39.1842 13.3706 39.4547C13.4092 39.3387 13.4092 39.2615 13.4865 39.1455C13.5638 39.0682 13.6411 38.991 13.7956 38.9523C13.7183 38.9523 13.6797 38.991 13.6024 39.0296C13.4092 39.1069 13.7956 38.6818 14.0661 38.5272Z" fill="#2E6D2F"/>
<path d="M12.9069 38.6431C12.9069 38.4885 12.9069 38.4112 12.9069 38.4112C12.9069 38.4112 12.9069 38.4112 12.9455 38.4112C12.9455 38.3726 12.9841 38.3726 13.0228 38.3726C13.1387 37.5611 13.216 36.8655 13.3706 36.595C12.0567 37.7156 11.9794 38.9909 12.6364 40.1501C12.7523 39.7637 12.8296 39.3773 12.9069 38.9909C12.9069 38.8749 12.9069 38.759 12.9069 38.6431Z" fill="#2E6D2F"/>
<path d="M12.9455 38.4114C12.9068 38.4114 12.9068 38.4114 12.9455 38.4114C12.9068 38.4114 12.9068 38.4887 12.9068 38.6432C12.9068 38.6046 12.9068 38.5273 12.9068 38.4887C12.9455 38.45 12.9455 38.4114 12.9455 38.4114Z" fill="#2E6D2F"/>
<path d="M13.757 38.9523C13.6024 38.991 13.5251 39.0683 13.4478 39.1455C13.3705 39.2228 13.3319 39.3388 13.3319 39.4547C13.4092 39.8025 13.5637 40.1116 13.757 40.4208C13.2932 39.3001 14.0275 38.991 14.4525 38.9523C14.1434 38.9137 13.9115 38.9137 13.757 38.9523Z" fill="#2E6D2F"/>
<path d="M12.9455 38.8364C12.9455 38.8751 12.9455 38.9524 12.9068 38.991C12.9455 40.3049 13.4092 41.0777 13.4865 41.1937C13.9116 41.6187 14.4526 42.0052 15.0708 42.353C15.0708 42.353 14.9163 42.1597 14.7231 41.8892C14.6844 41.8506 14.6071 41.812 14.5685 41.7733C13.3705 40.6913 13.0228 39.4547 12.9455 38.8364Z" fill="#2E6D2F"/>
<path d="M13.0227 38.3726C13.0227 38.4112 13.0227 38.4112 13.0227 38.4499C13.0614 38.4499 13.1 38.4499 13.1773 38.4499C13.1 38.3726 13.0614 38.3339 13.0227 38.3726Z" fill="#2E6D2F"/>
<path d="M13.3319 39.4547C13.2546 39.1842 13.216 38.9137 13.216 38.6045C13.216 38.5272 13.1773 38.4886 13.1387 38.45C13.0614 38.45 13.0228 38.45 12.9841 38.45C12.9455 38.5659 12.9455 38.7205 12.9068 38.875C12.9841 39.4933 13.3319 40.7685 14.5685 41.8119C14.6071 41.8506 14.6844 41.8892 14.7231 41.9278L14.6844 41.8892C13.757 40.9231 13.216 40.0343 13.3319 39.4547Z" fill="#2E6D2F"/>
<path d="M12.9455 38.4127C12.9455 38.4127 12.9849 38.4127 13.0242 38.4127C13.0242 38.3734 13.0242 38.3734 13.0242 38.334C12.9849 38.3734 12.9455 38.3734 12.9455 38.4127Z" fill="#2E6D2F"/>
<path d="M12.9068 38.9909C12.9068 38.9522 12.9068 38.8749 12.9455 38.8363C12.9455 38.759 12.9455 38.6817 12.9068 38.6431C12.9068 38.759 12.9068 38.8749 12.9068 38.9909Z" fill="#2E6D2F"/>
<path d="M12.9068 38.4887C12.9068 38.5273 12.9068 38.6046 12.9068 38.6432C12.9068 38.6819 12.9068 38.7592 12.9455 38.8365C12.9841 38.6819 12.9841 38.5659 13.0228 38.4114C12.9841 38.4114 12.9841 38.4114 12.9455 38.4114C12.9455 38.4114 12.9455 38.45 12.9068 38.4887Z" fill="#2E6D2F"/>
<path d="M14.7231 41.8505C14.3366 41.3482 13.8343 40.5753 13.757 40.4594C13.757 40.4207 13.757 40.4207 13.7183 40.3821C13.5251 40.073 13.4092 39.7638 13.2933 39.416C13.216 40.0343 13.757 40.9231 14.7231 41.8505Z" fill="#2E6D2F"/>
<path d="M50.7772 26.3934C51.5887 26.0842 52.5934 26.3547 52.3229 25.6592C52.0524 24.9636 51.1636 24.6158 50.3908 24.9636C49.5793 25.2727 49.1542 26.0842 49.4633 26.8185C49.6952 27.4754 50.0043 26.7025 50.7772 26.3934Z" fill="#2E6D2F"/>
<path d="M57.4625 28.0163C57.5398 27.3207 57.5398 26.6638 57.5012 26.1228C57.4625 26.1614 57.4625 26.2387 57.4239 26.2774C57.4625 26.5479 57.5398 27.1662 57.4625 28.0163Z" fill="#629441"/>
<path d="M53.3663 37.4068C52.5161 38.4115 51.4728 39.4162 50.3135 40.305C50.043 40.5369 49.7338 40.8074 49.386 41.0392C45.9854 43.667 42.5076 45.2127 41.696 45.5219C41.7347 45.5219 41.7347 45.5219 41.7733 45.5219C41.812 45.5219 41.812 45.5605 41.8506 45.5605C42.6621 45.2513 43.4736 44.9036 44.2465 44.5558C46.8356 43.3192 49.386 41.5802 51.5114 39.6481C53.5595 37.7932 55.0279 35.7838 56.1872 33.3106C56.535 32.5377 56.8442 31.6489 57.076 30.6829C56.651 32.2286 55.8781 34.0448 54.4869 35.977C54.1005 36.4407 53.7527 36.9431 53.3663 37.4068Z" fill="#629441"/>
<path d="M41.696 45.5218C42.5076 45.174 45.9468 43.6669 49.386 41.0392C49.6952 40.8073 50.0043 40.5368 50.3135 40.3049C46.7969 43.0486 42.5462 45.1353 41.696 45.5218Z" fill="#629441"/>
<path d="M50.3134 40.3048C51.4727 39.4161 52.5161 38.4113 53.3663 37.4066C53.7527 36.9429 54.1005 36.4792 54.4096 35.9768C53.83 36.7883 53.1344 37.5998 52.3229 38.4113C51.7819 38.991 51.0863 39.6479 50.3134 40.3048Z" fill="#629441"/>
<path d="M52.3615 38.3728C49.6565 41.1165 45.5217 43.9374 39.2615 46.4106C38.2954 46.797 38.45 46.6424 36.4019 47.5699C36.286 47.6085 36.2473 47.6085 36.2087 47.6085C36.2473 47.6858 36.3246 47.7245 36.4405 47.6858C38.0636 46.9129 39.7639 46.3333 41.4642 45.715C41.4255 45.715 41.4255 45.6764 41.3869 45.6764C41.3869 45.6764 41.5028 45.4832 41.696 45.5218C42.5462 45.1354 46.7969 43.0486 50.3134 40.305C51.0863 39.648 51.7819 38.9911 52.3615 38.3728Z" fill="#629441"/>
<path d="M57.4238 26.2773C57.4238 26.316 57.3851 26.316 57.3851 26.3546C57.5011 26.7024 57.5011 27.3207 57.3851 28.1709C57.3078 29.3688 56.9987 30.9145 56.1872 32.6148C56.1099 32.7694 56.0326 32.924 55.9553 33.1172C55.5303 34.0833 55.0279 35.088 54.4096 36.0154C55.8008 34.0833 56.6123 32.267 56.9987 30.7213C57.2306 29.8325 57.3851 28.9051 57.4624 28.0549C57.5397 27.1661 57.4624 26.5478 57.4238 26.2773Z" fill="#629441"/>
<path d="M56.1872 32.5763C56.9987 30.876 57.3079 29.2916 57.3852 28.1323C57.192 29.4462 56.7282 31.2238 55.9554 33.0787C56.0327 32.9241 56.11 32.7309 56.1872 32.5763Z" fill="#629441"/>
<path d="M57.3852 28.1322C57.5011 27.3206 57.5011 26.7023 57.3852 26.3159C57.4238 26.741 57.4624 27.3593 57.3852 28.1322Z" fill="#629441"/>
<path d="M54.4097 35.9769C55.028 35.0494 55.5303 34.0833 55.9554 33.0786C55.2598 34.5471 54.2937 36.3246 52.3616 38.3727C53.1731 37.5612 53.83 36.7497 54.4097 35.9769Z" fill="#629441"/>
<path d="M57.3851 26.3547C57.1146 26.973 56.7282 27.5527 56.3031 28.0937C56.4577 28.6733 56.7668 30.2577 55.6462 32.9627C54.6028 35.5132 52.8639 37.7158 50.8158 39.5707C48.4585 41.6961 46.1013 43.0872 43.4736 44.2852C41.1163 45.3672 38.4886 46.0241 36.2473 47.3766C36.17 47.4153 36.1314 47.5312 36.17 47.6085C36.2086 47.6085 36.2859 47.6085 36.3632 47.5699C38.4113 46.6424 38.2567 46.7583 39.2228 46.4106C45.483 43.976 49.6178 41.1551 52.3229 38.3728C54.255 36.3247 55.2211 34.5085 55.9167 33.0787C56.6895 31.2624 57.1919 29.4848 57.3465 28.1323C57.4624 27.3595 57.4238 26.7412 57.3851 26.3547Z" fill="#629441"/>
<path d="M41.696 45.5217C41.5801 45.5604 41.5414 45.599 41.5414 45.599C41.5414 45.599 41.5801 45.599 41.7347 45.6377C41.7733 45.6377 41.8119 45.599 41.8506 45.599C41.8119 45.599 41.8119 45.5604 41.7733 45.5604C41.7347 45.5217 41.7347 45.5217 41.696 45.5217Z" fill="#629441"/>
<path d="M41.5414 45.599C41.5414 45.599 41.6187 45.5604 41.696 45.5217C41.5801 45.5604 41.5414 45.599 41.5414 45.599Z" fill="#629441"/>
<path d="M41.696 45.6375C41.5801 45.5989 41.5028 45.5989 41.5028 45.5989C41.5028 45.5989 41.5414 45.5989 41.6187 45.6375C41.6574 45.6375 41.696 45.6375 41.696 45.6375Z" fill="#629441"/>
<path d="M41.3869 45.6763C41.4255 45.6763 41.4255 45.7149 41.4642 45.7149C41.5414 45.6763 41.6187 45.6763 41.6574 45.6376C41.5801 45.599 41.5414 45.599 41.5414 45.599C41.5414 45.599 41.5801 45.5604 41.696 45.5217C41.5028 45.4831 41.3869 45.6763 41.3869 45.6763Z" fill="#629441"/>
<path d="M7.99916 28.5186C8.3083 26.5864 10.0086 23.8814 12.7523 22.0265C12.7909 21.872 12.8296 21.6787 12.8682 21.5242C12.8296 21.5628 12.7523 21.6015 12.7136 21.6015C8.81066 24.0746 6.3375 29.1755 7.7673 33.8127C7.69001 32.3829 7.69001 30.4894 7.99916 28.5186Z" fill="#2E6D2F"/>
<path d="M13.757 21.4084C13.8343 21.2538 13.9116 21.0606 14.0275 20.906C13.6411 21.0992 13.2546 21.2924 12.8682 21.5243C12.8295 21.6789 12.7909 21.8721 12.7523 22.0267C13.0614 21.7948 13.4092 21.6016 13.757 21.4084Z" fill="#2E6D2F"/>
<path d="M27.9391 20.2876C28.9051 20.2876 29.6394 20.2103 29.9099 20.2103C31.1078 19.8238 32.383 19.3988 33.465 18.8964C37.2907 17.2347 41.3096 15.2639 43.6668 14.8389C44.2078 14.7229 44.7488 14.6456 45.2512 14.5684C45.2126 14.5684 45.1353 14.5684 45.0966 14.5684C42.5075 14.8775 39.7639 15.8049 37.368 16.8097C34.6243 18.0462 31.9966 19.7079 28.9824 20.0943C28.6346 20.133 28.2868 20.1716 27.9777 20.1716C27.9777 20.2103 27.9391 20.2489 27.9391 20.2876Z" fill="#2E6D2F"/>
<path d="M48.7291 14.3752C50.6613 14.4525 52.2456 14.8776 53.4822 15.5345C51.9751 14.6844 50.3521 14.4139 48.7291 14.3752Z" fill="#2E6D2F"/>
<path d="M57.9648 23.1087C58.0421 24.268 57.6556 25.2727 57.4624 25.7365V25.7751C57.4624 25.891 57.5011 26.007 57.5011 26.1229C58.5058 23.6884 58.3899 20.8288 56.8828 18.6261C56.7282 18.4329 56.5736 18.201 56.4191 18.0078C57.6556 19.7468 58.0421 21.7176 57.9648 23.1087Z" fill="#2E6D2F"/>
<path d="M27.7845 20.4808C28.3255 20.4808 28.8278 20.4421 29.3688 20.3648C29.562 20.2876 29.7166 20.2489 29.9098 20.1716C29.6393 20.2103 28.9051 20.2489 27.939 20.2489C27.9004 20.4035 27.7845 20.4808 27.7845 20.4808Z" fill="#2E6D2F"/>
<path d="M8.07645 33.465C6.91715 29.2142 9.23574 24.9249 12.675 22.3744C12.7136 22.2585 12.7136 22.1425 12.7523 22.0266C10.0086 23.9201 8.30831 26.6252 7.99916 28.5187C7.69002 30.4508 7.69002 32.383 7.7673 33.8128C7.80595 33.8901 7.80594 33.9674 7.84459 34.0446C7.92187 33.8514 7.99916 33.6582 8.07645 33.465Z" fill="#2E6D2F"/>
<path d="M57.3465 25.4272C56.4577 27.8618 54.1391 29.4075 51.9365 30.6827C50.0043 31.8034 47.9949 32.7694 45.9468 33.581C43.3963 34.5857 40.7299 35.3972 38.0636 36.0541C39.7639 35.6677 41.3869 35.2426 42.778 34.8948C46.4105 33.7355 49.1542 32.5762 51.1636 31.4942C54.0619 29.8712 55.6849 28.2868 56.5737 27.2821C57.1147 26.5092 57.192 26.0069 57.192 26.0069C57.2306 26.0069 57.2692 26.0455 57.3079 26.0842L57.3852 25.9682C57.3079 25.7364 57.4625 25.5818 57.5011 25.7364C57.6943 25.3113 58.0808 24.2679 58.0035 23.1086C58.0035 23.1859 58.0035 23.2632 58.0035 23.3405C57.8875 23.9974 57.6943 24.693 57.3465 25.4272Z" fill="#2E6D2F"/>
<path d="M13.757 21.4084C13.4092 21.6017 13.1001 21.7949 12.7523 22.0267C12.7136 22.1427 12.7136 22.2586 12.675 22.3745C12.9841 22.1427 13.2933 21.9495 13.6024 21.7562C13.6411 21.6403 13.6797 21.5244 13.757 21.4084Z" fill="#2E6D2F"/>
<path d="M26.432 38.2182C28.5573 37.9863 31.4556 37.4839 34.3925 36.9043C29.4461 37.8704 24.4225 38.3727 19.4762 38.6819C17.9304 38.7978 16.4234 38.6046 14.8776 38.5273L14.839 38.6432C15.7278 38.7205 16.8484 38.8365 18.1237 38.9137C18.2396 38.9137 18.3555 38.9137 18.5101 38.9137C20.906 38.8365 23.8429 38.4887 26.432 38.2182Z" fill="#2E6D2F"/>
<path d="M57.2692 26.1227C57.2306 26.0841 57.1919 26.0454 57.1533 26.0454C57.1533 26.0454 57.1147 26.5091 56.535 27.3206C56.5736 27.282 56.6123 27.2433 56.6509 27.2047L57.2692 26.1227Z" fill="#2E6D2F"/>
<path d="M51.125 31.4941C49.0769 32.5762 46.3719 33.7354 42.7394 34.8947C44.1306 34.5083 45.2899 34.1605 46.0241 33.89C47.9949 33.1172 49.6952 32.3056 51.125 31.4941Z" fill="#2E6D2F"/>
<path d="M14.7231 38.8363C15.5732 38.7976 16.7711 38.8749 18.1237 38.9136C16.8098 38.7976 15.6891 38.7204 14.839 38.6431L14.7231 38.8363Z" fill="#2E6D2F"/>
<path d="M33.4651 18.8964C32.3444 19.3602 31.0692 19.7852 29.9099 20.2103C29.9872 20.2103 30.0258 20.2103 30.0258 20.2103C30.0258 20.2103 31.6875 19.592 33.0013 19.4374C35.3972 18.4327 37.5612 17.0802 40.0344 16.346C42.5462 15.5731 45.3285 14.8775 47.9563 14.8775C50.4294 14.8775 52.748 15.4186 55.0666 17.2734C56.4191 18.3941 57.2693 19.9398 57.5784 21.6401C57.6943 21.9493 57.8103 22.2584 57.8876 22.6062C57.9262 22.7994 57.9648 22.9926 57.9648 23.1858C58.0421 21.756 57.6557 19.8239 56.4578 18.0849C55.569 16.9256 54.5642 16.1528 53.5209 15.5731C52.2843 14.9162 50.6999 14.4911 48.7678 14.4138C47.6085 14.3752 46.4105 14.4911 45.2899 14.607C44.7875 14.6843 44.2465 14.7616 43.7055 14.8775C41.3096 15.3026 37.2907 17.2348 33.4651 18.8964Z" fill="#2E6D2F"/>
<path d="M57.6557 24.152C57.617 24.6157 57.5011 25.0408 57.3465 25.4659C57.6943 24.7317 57.8875 24.0361 57.9262 23.3791C57.9262 23.3019 57.9262 23.2246 57.9262 23.1473C57.9262 22.9541 57.8875 22.7609 57.8489 22.5676C57.7716 22.2199 57.6557 21.9107 57.5397 21.6016C57.733 22.4131 57.7716 23.3019 57.6557 24.152Z" fill="#2E6D2F"/>
<path d="M32.6149 19.5921C32.7695 19.5535 32.8854 19.4762 33.04 19.3989C31.6875 19.5535 30.0644 20.1718 30.0644 20.1718C30.0644 20.1718 30.0258 20.1718 29.9485 20.1718C29.7553 20.2491 29.5621 20.2877 29.4075 20.365C30.4509 20.2877 31.4942 20.0172 32.6149 19.5921Z" fill="#2E6D2F"/>
<path d="M56.535 27.282C55.6462 28.2867 54.0232 29.8711 51.125 31.4941C54.3324 29.7938 55.8394 28.2867 56.535 27.282Z" fill="#2E6D2F"/>
<path d="M26.4319 38.218C23.8815 38.4885 20.9446 38.875 18.5101 38.875C18.3942 38.875 18.2782 38.875 18.1237 38.875C18.3942 38.9136 18.6647 38.9136 18.9738 38.9522C22.4517 39.2227 33.9287 37.3679 38.6046 36.1313C40.1116 35.7449 41.4641 35.3198 42.7394 34.9333C41.3482 35.3198 39.7639 35.7062 38.0249 36.0926C36.827 36.4018 35.5904 36.6336 34.3538 36.9042C31.4556 37.4838 28.5573 37.9862 26.4319 38.218Z" fill="#2E6D2F"/>
<path d="M56.651 27.1663C56.6123 27.2049 56.5737 27.2435 56.535 27.2822C55.8395 28.2869 54.3324 29.794 51.125 31.4943C49.7338 32.3058 48.0335 33.1173 45.9854 33.8902C45.2512 34.1607 44.0919 34.5085 42.7008 34.8949C41.4256 35.2813 40.073 35.7064 38.566 36.0928C33.8901 37.3294 22.4517 39.1843 18.9352 38.9138C18.6647 38.8751 18.3556 38.8751 18.0851 38.8365C16.7325 38.8365 15.5346 38.7592 14.6845 38.7592L14.6458 38.7979C14.6458 38.7979 14.5299 38.7979 14.3753 38.8365C15.4187 38.8365 17.1576 39.1457 18.1623 39.1457C19.6694 39.1843 21.3697 39.1457 22.8768 39.0297C25.6205 38.7979 28.3641 38.4501 31.1078 38.025C35.1267 37.4067 39.0683 36.5179 42.9326 35.2813C45.4444 34.4698 47.879 33.4651 50.2362 32.2672C52.0524 31.3397 53.8687 30.2577 55.4144 28.9052C55.7235 28.6347 55.994 28.3256 56.2645 28.0164C56.2259 27.9005 56.1873 27.8232 56.1873 27.7846L56.651 27.1663Z" fill="#2E6D2F"/>
<path d="M14.8776 38.4885C14.6458 38.4885 14.4526 38.4885 14.2207 38.4885C14.1821 38.4885 14.1434 38.4885 14.0661 38.5272C14.298 38.5658 14.5298 38.5658 14.8004 38.6045L14.8776 38.4885Z" fill="#2E6D2F"/>
<path d="M14.0661 38.5273C13.7956 38.6819 13.4092 39.107 13.6024 39.0297C13.6411 38.9911 13.7184 38.9911 13.7956 38.9524C14.0275 38.8751 14.3366 38.8365 14.7617 38.8365L14.8777 38.6046C14.5299 38.566 14.298 38.5273 14.0661 38.5273Z" fill="#2E6D2F"/>
<path d="M14.7231 38.8364C14.3366 38.8364 13.9888 38.8751 13.757 38.9524C13.9116 38.9137 14.1434 38.9137 14.4139 38.9137C14.5685 38.8751 14.6844 38.8751 14.6844 38.8751L14.7231 38.8364Z" fill="#2E6D2F"/>
<path d="M57.4625 25.7363C57.3852 25.8909 57.3465 25.9682 57.3465 25.9682C57.3465 25.9682 57.3465 26.0455 57.3852 26.1614C57.4238 26.1228 57.4238 26.0841 57.4238 26.0841C57.4238 26.0841 57.4238 26.1614 57.4625 26.2387C57.5011 26.2 57.5011 26.1228 57.5397 26.0841C57.5397 25.9682 57.5011 25.8523 57.5011 25.7363C57.4625 25.775 57.4625 25.7363 57.4625 25.7363Z" fill="#2E6D2F"/>
<path d="M57.3465 26.2001C57.3465 26.2001 57.3465 26.1615 57.3852 26.1615C57.3852 26.0455 57.3465 25.9683 57.3465 25.9683L57.2692 26.0842C57.2692 26.1228 57.3079 26.1615 57.3465 26.2001Z" fill="#2E6D2F"/>
<path d="M57.3465 25.9682C57.3465 25.9682 57.3852 25.8909 57.4625 25.7363C57.3852 25.5818 57.2692 25.775 57.3465 25.9682Z" fill="#2E6D2F"/>
<path d="M57.3465 26.2002C57.3079 26.1615 57.3079 26.1229 57.2692 26.0842L56.6509 27.1662C57.0374 26.7025 57.2306 26.3934 57.3465 26.2002Z" fill="#2E6D2F"/>
<path d="M57.3852 26.3547C57.3852 26.316 57.4238 26.316 57.4238 26.2774C57.4238 26.1614 57.3852 26.1228 57.3852 26.1228C57.3852 26.1228 57.3852 26.1614 57.3465 26.2001C57.3852 26.2001 57.3852 26.2774 57.3852 26.3547C57.3852 26.316 57.3852 26.3547 57.3852 26.3547Z" fill="#2E6D2F"/>
<path d="M57.3852 26.316C57.3852 26.2773 57.3852 26.2 57.3852 26.1614C57.3852 26.1614 57.3852 26.2 57.3465 26.2C57.3465 26.2387 57.3852 26.2773 57.3852 26.316Z" fill="#2E6D2F"/>
<path d="M57.3851 26.3161C57.3851 26.2775 57.3465 26.2388 57.3465 26.2002C57.2692 26.3548 57.0373 26.7026 56.6509 27.1663L56.2258 27.8619C56.2258 27.9005 56.2645 27.9778 56.3031 28.0937C56.7282 27.5527 57.1146 26.9731 57.3851 26.3548V26.3161Z" fill="#2E6D2F"/>
<path d="M21.2151 19.5921C21.2924 19.3602 21.4083 19.167 21.4856 19.0124C21.4856 19.0124 21.4856 18.9738 21.5243 18.9738C21.7175 18.6647 21.9107 18.4714 21.9107 18.4714C22.3744 18.0077 22.8381 17.8145 22.8381 17.8145C25.1181 16.8871 26.5865 18.8965 27.2435 20.1331C27.3594 20.1331 27.514 20.1331 27.6299 20.1331C26.316 17.6213 24.9635 16.0756 22.3358 16.8484C21.0606 17.2349 20.4809 18.5101 20.2491 19.2829C20.4036 19.3602 20.5582 19.4375 20.7128 19.5148C20.8673 19.5921 21.0219 19.5921 21.2151 19.5921Z" fill="#379537"/>
<path d="M21.2924 21.7562C20.0558 21.0607 18.3555 20.8288 16.8871 21.7562C17.1962 21.6017 17.4667 21.5244 17.5054 21.5244C18.4328 21.1766 19.4762 21.1766 20.1718 21.3698C22.2585 21.9108 22.9927 23.8816 23.07 24.1521C23.1859 24.0362 23.3019 23.9203 23.4178 23.8043C23.4178 23.8043 22.529 22.4905 21.2924 21.7562Z" fill="#379537"/>
<path d="M16.1923 28.2877C16.1923 28.2877 16.2316 28.2877 16.1923 28.2877C16.1923 28.2483 16.1529 28.2483 16.1529 28.2483C16.1529 28.2483 16.1923 28.2483 16.1923 28.2877Z" fill="#379537"/>
<path d="M27.7845 20.481C27.6685 20.481 27.514 20.481 27.398 20.481C27.5526 20.8287 27.6299 21.022 27.6299 21.022C27.6685 20.9833 27.7458 20.9833 27.7845 20.9447C27.8231 20.9447 27.8231 20.906 27.8231 20.906L27.7845 20.481Z" fill="#379537"/>
<path d="M20.5196 28.0549C20.5196 28.0549 20.5582 28.0549 20.5196 28.0549C20.5968 27.939 20.7128 27.7071 20.8674 27.3979C20.6741 27.7457 20.5196 28.0162 20.5196 28.0549Z" fill="#379537"/>
<path d="M27.4367 21.1377C27.5912 21.0604 27.7072 21.0218 27.7458 20.9832C27.7072 21.0218 27.6299 21.0218 27.5912 21.0604C27.5912 21.0604 27.5526 21.0991 27.4367 21.1377Z" fill="#379537"/>
<path d="M23.4564 23.8428C23.3405 23.9587 23.2246 24.0746 23.1087 24.1906C23.1087 24.2292 23.1087 24.2292 23.1087 24.2292C23.1087 24.2292 22.4517 24.8861 21.988 25.5817C22.3358 25.0794 22.7995 24.577 23.3405 24.036C23.4178 23.9587 23.4951 23.9201 23.5337 23.8428H23.4564Z" fill="#379537"/>
<path d="M20.7128 19.5535C20.8673 19.6308 20.9833 19.708 21.1378 19.7853C21.1765 19.708 21.1765 19.6308 21.2151 19.5535C21.0219 19.5921 20.8673 19.5921 20.7128 19.5535Z" fill="#379537"/>
<path d="M27.2048 20.1716C27.2434 20.2103 27.2434 20.2489 27.2821 20.2876C27.398 20.2876 27.5526 20.2876 27.6685 20.2876C27.6299 20.2489 27.6299 20.2103 27.5912 20.1716C27.4753 20.1716 27.3207 20.1716 27.2048 20.1716Z" fill="#379537"/>
<path d="M27.3594 20.4808C27.4754 20.4808 27.6299 20.4808 27.7459 20.4808C27.7072 20.4035 27.6686 20.3262 27.6299 20.2876C27.514 20.2876 27.3594 20.2876 27.2435 20.2876C27.3208 20.3649 27.3594 20.4422 27.3594 20.4808Z" fill="#379537"/>
<path d="M25.3886 20.0559C26.0069 20.1332 26.6252 20.1718 27.2049 20.1718C26.5479 18.9352 25.0795 16.9258 22.7995 17.8532C22.8382 17.8532 23.8815 18.1624 24.693 19.0125C24.9636 19.283 25.1954 19.6308 25.3886 20.0559Z" fill="white"/>
<path d="M25.6977 22.104C26.1615 21.7563 26.7797 21.4085 27.5913 21.0607C27.5913 21.0607 27.514 20.8288 27.3594 20.5197C26.7411 20.5197 26.1228 20.481 25.5045 20.4424C25.6591 20.9061 25.7364 21.4471 25.6977 22.104Z" fill="white"/>
<path d="M25.6978 22.104C25.6978 22.1426 25.6978 22.1426 25.6978 22.1426C26.3933 21.6789 27.0503 21.3698 27.4367 21.1379C27.5526 21.0606 27.5913 21.022 27.5913 21.022C26.7798 21.4084 26.2001 21.7562 25.6978 22.104Z" fill="white"/>
<path d="M25.4659 20.2105C25.7364 20.2105 25.9683 20.2491 26.2388 20.2491C26.6252 20.2491 26.973 20.2878 27.2821 20.2878C27.2435 20.2491 27.2435 20.2105 27.2048 20.1718C26.5866 20.1718 25.9683 20.1332 25.3886 20.0559C25.3886 20.0946 25.4273 20.1718 25.4659 20.2105Z" fill="white"/>
<path d="M26.2001 20.2491C25.9682 20.2491 25.6977 20.2104 25.4272 20.2104C25.4659 20.2877 25.4659 20.3264 25.5045 20.4037C26.1228 20.4423 26.7411 20.481 27.3594 20.481C27.3207 20.4037 27.2821 20.365 27.2434 20.2877C26.9343 20.2877 26.5865 20.2877 26.2001 20.2491Z" fill="white"/>
<path d="M22.7609 17.8919C22.7995 17.8919 22.7995 17.8919 22.8381 17.8533C22.8381 17.8533 22.3744 18.0078 21.9107 18.5102H21.9493C22.1812 18.2397 22.4517 18.0078 22.7609 17.8919Z" fill="#7299CF"/>
<path d="M21.9493 18.5102C22.1812 18.5488 23.1473 18.7807 23.8815 19.6309C24.1134 19.4763 24.4225 19.5149 24.6157 19.6695C24.7317 19.7468 24.7703 19.8627 24.8089 19.9786C25.0022 20.0173 25.1954 20.0173 25.3886 20.0559C25.1954 19.6309 24.9635 19.2831 24.7317 19.0126C23.9201 18.1624 22.8768 17.8533 22.8381 17.8533C22.7995 17.8533 22.7995 17.8533 22.7608 17.8919C22.4517 18.0078 22.1812 18.2397 21.9493 18.5102Z" fill="#7299CF"/>
<path d="M25.5045 20.4037C25.2726 20.3651 25.0408 20.3651 24.8089 20.3264C24.7703 20.4037 24.7316 20.481 24.693 20.5583C24.6544 20.6356 24.5771 20.6742 24.4998 20.7128C24.8089 21.6403 24.693 22.4518 24.4998 22.9542C24.5384 22.9155 24.5771 22.8769 24.6544 22.8382C24.7316 22.7996 24.7703 22.7609 24.8476 22.7223C25.1181 22.5291 25.3886 22.2972 25.7364 22.0654C25.7364 21.4471 25.6591 20.9061 25.5045 20.4037Z" fill="#7299CF"/>
<path d="M24.4998 22.9926C24.5384 22.954 24.5771 22.9154 24.6544 22.8767C24.6157 22.9154 24.5771 22.954 24.4998 22.9926Z" fill="#7299CF"/>
<path d="M25.6978 22.104C25.35 22.3359 25.0795 22.5677 24.809 22.7609C25.1181 22.5291 25.3886 22.3359 25.6978 22.1426C25.6978 22.1426 25.6978 22.1426 25.6978 22.104Z" fill="#7299CF"/>
<path d="M24.809 19.9785C24.809 20.0558 24.8476 20.0944 24.8476 20.1717C25.0408 20.1717 25.2727 20.2104 25.4659 20.2104C25.4273 20.1717 25.4273 20.0944 25.3886 20.0558C25.1954 20.0172 25.0022 20.0172 24.809 19.9785Z" fill="#7299CF"/>
<path d="M24.8476 20.1716C24.8476 20.2103 24.8476 20.2876 24.809 20.3262C25.0408 20.3648 25.2727 20.3648 25.5045 20.4035C25.4659 20.3262 25.4659 20.2876 25.4273 20.2103C25.234 20.2103 25.0408 20.2103 24.8476 20.1716Z" fill="#7299CF"/>
<path d="M23.5337 23.8428L23.611 23.8042C23.6497 23.7655 23.6883 23.7269 23.7269 23.6883C23.7656 23.6496 23.8429 23.5723 23.8815 23.5337L23.8429 23.5723C23.7269 23.6496 23.611 23.7269 23.5337 23.8428Z" fill="#1A1919"/>
<path d="M21.4856 19.0125C21.3697 19.167 21.2924 19.3602 21.2151 19.5921C21.2924 19.3989 21.3697 19.2057 21.4856 19.0125Z" fill="#1A1919"/>
<path d="M21.8721 18.51C21.8721 18.51 21.6789 18.7032 21.4857 19.0124C21.6402 18.7805 21.7562 18.6259 21.8721 18.51Z" fill="#1A1919"/>
<path d="M23.4564 23.8428C23.495 23.8428 23.495 23.8042 23.5337 23.8042L23.4564 23.6882C23.4564 23.7655 23.4564 23.8042 23.4564 23.8428Z" fill="#1A1919"/>
<path d="M23.4564 23.8428L23.5337 23.8042C23.611 23.7269 23.7269 23.6496 23.8428 23.5337C23.6496 23.6883 23.5337 23.7656 23.5337 23.7656C23.495 23.8042 23.495 23.8428 23.4564 23.8428Z" fill="#1A1919"/>
<path d="M21.2151 19.592C21.1765 19.6693 21.1378 19.7466 21.1378 19.8239C21.1765 19.7466 21.1765 19.6693 21.2151 19.592Z" fill="#1A1919"/>
<path d="M23.8822 23.5337C23.8822 23.5337 23.8429 23.5337 23.8429 23.5731C23.8429 23.5731 23.8822 23.5337 23.8822 23.5337Z" fill="#1A1919"/>
<path d="M23.4564 23.6883L23.5337 23.8043C23.6496 23.6883 23.7656 23.5724 23.9201 23.4565C23.8815 23.4178 23.611 23.2246 23.3018 22.9541C23.3791 23.2632 23.4178 23.5337 23.4564 23.6883Z" fill="#1A1919"/>
<path d="M23.9202 23.4563C23.8042 23.5722 23.6497 23.6882 23.5337 23.8041C23.5337 23.8041 23.6497 23.6882 23.8429 23.5722L23.8815 23.5336C23.9202 23.4949 23.9202 23.4949 23.9202 23.4563C23.9202 23.4949 23.9202 23.4563 23.9202 23.4563Z" fill="#1A1919"/>
<path d="M21.2538 19.592C21.4083 19.2829 21.6402 18.8578 21.9493 18.51C21.9107 18.51 21.9107 18.51 21.9107 18.51C21.7948 18.6646 21.6402 18.8192 21.5243 19.0124C21.5243 19.0124 21.5243 19.051 21.4856 19.051C21.3697 19.2056 21.2924 19.3988 21.2151 19.6307C21.2151 19.592 21.2538 19.592 21.2538 19.592Z" fill="#1A1919"/>
<path d="M21.2538 19.592H21.2151C21.1765 19.6693 21.1765 19.7466 21.1378 19.8239C21.1765 19.7853 21.2151 19.6693 21.2538 19.592Z" fill="#1A1919"/>
<path d="M23.7269 19.7466C23.7656 19.7079 23.8042 19.6693 23.8815 19.6307C23.1473 18.7805 22.2199 18.5487 21.9494 18.51C21.6402 18.8578 21.4084 19.2829 21.2538 19.592C22.0653 19.6307 22.8382 19.7466 23.6497 19.8625C23.6883 19.8239 23.6883 19.7852 23.7269 19.7466Z" fill="#1A1919"/>
<path d="M23.8042 20.6355C23.6497 20.5195 23.5724 20.3649 23.5724 20.1717C22.8382 20.0944 22.1426 20.0172 21.4084 19.9785C22.5677 20.8673 23.07 22.1039 23.3019 22.954C23.611 23.2245 23.8429 23.4178 23.9202 23.4564C24.1134 23.3018 24.3066 23.1473 24.5385 22.954C24.693 22.4517 24.8476 21.6402 24.5385 20.7127C24.268 20.8287 23.9974 20.8287 23.8042 20.6355Z" fill="#1A1919"/>
<path d="M23.9201 23.4564C23.9201 23.4564 23.9201 23.495 23.9201 23.4564C24.152 23.3018 24.3452 23.1472 24.5384 22.9927C24.3066 23.1472 24.1134 23.3018 23.9201 23.4564Z" fill="#1A1919"/>
<path d="M21.3311 19.9786C22.0653 20.0173 22.7995 20.0559 23.5724 20.1332C23.5724 20.0559 23.611 19.9786 23.6497 19.9014C22.8381 19.7854 22.0653 19.7081 21.2538 19.6309C21.2151 19.7081 21.1765 19.7854 21.1378 19.8627C21.2151 19.8627 21.2538 19.94 21.3311 19.9786Z" fill="#1A1919"/>
<path d="M21.3311 19.9785C21.3697 19.9785 21.3697 20.0172 21.4083 20.0172C22.1426 20.0558 22.8381 20.1331 23.5724 20.2104C23.5724 20.1717 23.5724 20.1331 23.5724 20.0944C22.7995 20.0558 22.0653 20.0172 21.3311 19.9785Z" fill="#1A1919"/>
<path d="M24.8089 19.9786C24.7703 19.8626 24.693 19.7467 24.6157 19.6694C24.3839 19.4762 24.1134 19.4762 23.8815 19.6308C23.9588 19.7081 24.0361 19.7854 24.0747 19.9013C24.3066 19.9399 24.5771 19.9786 24.8089 19.9786Z" fill="white"/>
<path d="M24.3066 20.2876C24.3066 20.2876 24.3452 20.3262 24.3066 20.2876C24.3839 20.4808 24.4612 20.5967 24.4998 20.7513C24.5771 20.7127 24.6157 20.674 24.693 20.5967C24.7703 20.5195 24.8089 20.4422 24.8089 20.3649C24.693 20.3649 24.5384 20.3262 24.4225 20.3262C24.3839 20.2876 24.3452 20.2876 24.3066 20.2876Z" fill="white"/>
<path d="M24.809 19.9787C24.5771 19.94 24.3066 19.94 24.0747 19.9014C24.1134 19.9787 24.1907 20.0559 24.2293 20.1332C24.4225 20.1332 24.6157 20.1719 24.8476 20.1719C24.8476 20.1332 24.809 20.0559 24.809 19.9787Z" fill="white"/>
<path d="M24.2293 20.1331C24.2679 20.1717 24.2679 20.2103 24.3066 20.2876C24.3452 20.2876 24.3839 20.2876 24.4225 20.2876C24.5384 20.2876 24.693 20.3263 24.8089 20.3263C24.8089 20.2876 24.8476 20.2103 24.8476 20.1717C24.6157 20.1717 24.4225 20.1717 24.2293 20.1331Z" fill="white"/>
<path d="M23.6496 19.8627C23.8042 19.8627 23.9201 19.9014 24.0747 19.9014C23.9974 19.8241 23.9201 19.7081 23.8815 19.6309C23.8428 19.6695 23.7656 19.7081 23.7269 19.7468C23.6883 19.7854 23.6883 19.8241 23.6496 19.8627Z" fill="white"/>
<path d="M24.3066 20.2877C24.0747 20.2491 23.8042 20.2491 23.5724 20.2104C23.5724 20.365 23.6497 20.5582 23.8042 20.6742C23.9975 20.8287 24.3066 20.8674 24.4998 20.7515C24.4612 20.5969 24.3839 20.4423 24.3066 20.2877C24.3453 20.3264 24.3066 20.2877 24.3066 20.2877Z" fill="white"/>
<path d="M23.6497 19.8625C23.611 19.9398 23.5724 20.0171 23.5724 20.0944C23.8042 20.0944 23.9975 20.1331 24.2293 20.1331C24.1907 20.0558 24.1134 19.9785 24.0747 19.9012C23.9202 19.9012 23.8042 19.8625 23.6497 19.8625Z" fill="white"/>
<path d="M23.5724 20.2104C23.8042 20.2491 24.0747 20.2491 24.3066 20.2877C24.268 20.2491 24.268 20.2104 24.2293 20.1331C23.9975 20.1331 23.8042 20.0945 23.5724 20.0945C23.5724 20.1331 23.5724 20.1718 23.5724 20.2104Z" fill="white"/>
<path d="M13.2546 25.0793C13.216 24.8474 13.216 24.6542 13.216 24.4224C13.1773 24.4996 13.1773 24.5383 13.1387 24.6156C13.1773 26.7796 14.298 28.0548 14.8776 28.5572C15.1095 28.5185 15.3027 28.4799 15.5346 28.4413C14.6071 27.9389 13.4865 26.9342 13.2546 25.0793Z" fill="#379537"/>
<path d="M16.462 19.9398C16.3074 20.0171 16.1529 20.0943 15.9983 20.1716C16.8484 19.9398 17.6986 19.7466 18.5874 19.6693C18.0077 19.592 17.2735 19.6306 16.462 19.9398Z" fill="#379537"/>
<path d="M20.7127 19.5534C20.5582 19.4761 20.4036 19.3988 20.249 19.3215C20.2104 19.3988 20.2104 19.4761 20.2104 19.5147C20.2104 19.5147 20.2104 19.5147 20.249 19.5147C20.365 19.5534 20.5195 19.5534 20.7127 19.5534Z" fill="#379537"/>
<path d="M14.8776 26.0456C14.839 25.7365 14.8004 25.4273 14.8004 25.0409C14.8004 23.0701 16.1529 22.2199 16.1529 22.2199C16.3847 22.0267 16.6166 21.9108 16.8484 21.7949C18.3169 20.8674 20.0558 21.0993 21.2538 21.7949C22.529 22.4904 23.4178 23.8816 23.4178 23.8816C23.3405 23.7657 22.6836 22.8382 22.0266 22.0654C21.988 22.0267 21.9494 21.9881 21.9107 21.9494C21.4083 21.4857 20.9833 21.0993 20.9446 20.9834C20.9446 20.9447 20.9446 20.7515 20.9446 20.7129C20.9446 20.6742 20.9446 20.5969 20.9446 20.5583C20.9446 20.4037 20.9833 20.2491 21.0219 20.0946C20.6741 20.0946 20.365 20.0559 20.0172 20.0946C20.0172 20.1332 20.0172 20.1332 20.0172 20.1332C20.0172 20.1332 19.9785 20.0946 19.9013 20.0946C18.3169 20.0946 16.7712 20.3264 15.2641 20.9834C15.1868 21.022 15.1095 21.0606 15.0322 21.0993C14.0661 22.1813 13.4478 23.727 13.1387 24.5385C13.1387 24.7704 13.1387 25.0023 13.1773 25.1955C13.4478 27.089 14.5685 28.0551 15.4959 28.5188C15.7278 28.4801 15.921 28.4415 16.1529 28.4029L16.1142 28.3642C15.6892 27.9005 15.0709 27.2049 14.8776 26.0456Z" fill="#379537"/>
<path d="M21.0992 19.9399C21.0992 19.9013 21.1378 19.8626 21.1378 19.7853C21.0219 19.708 20.8673 19.6308 20.7128 19.5535C20.5582 19.5535 20.365 19.5535 20.2104 19.5535C20.2104 19.5535 20.2104 19.5535 20.1718 19.5535C20.1331 19.708 20.0945 19.824 20.0945 19.9013C20.4036 19.9399 20.7514 19.9399 21.0992 19.9399Z" fill="#379537"/>
<path d="M17.7372 19.9786C18.2396 19.9014 18.9352 19.8627 19.7853 19.9014C19.5148 19.8241 19.1284 19.6695 18.626 19.6309C17.7759 19.7081 16.8871 19.9014 16.0369 20.1332C15.8051 20.2492 15.6119 20.4424 15.4186 20.5969C16.1529 20.3651 16.9257 20.1332 17.7372 19.9786Z" fill="#379537"/>
<path d="M19.9399 19.9787C19.9013 19.94 19.824 19.94 19.7467 19.9014C18.9352 19.9014 18.201 19.9014 17.6986 19.9787C16.8871 20.1332 16.1142 20.3264 15.38 20.5969C15.2641 20.7129 15.1481 20.7902 15.0709 20.9061C15.1481 20.8674 15.2254 20.8288 15.3027 20.7902C16.8484 20.2105 18.3942 20.0173 19.9399 19.9787Z" fill="#379537"/>
<path d="M21.0605 19.9787V19.94C20.7128 19.94 20.365 19.9014 20.0558 19.9014C20.0558 19.94 20.0558 19.94 20.0558 19.9787C20.4036 19.9787 20.7514 19.9787 21.0605 19.9787Z" fill="#379537"/>
<path d="M21.0219 20.8287C21.0219 20.7128 20.9833 20.5969 21.0219 20.481C21.0219 20.5196 21.0219 20.5969 21.0219 20.6355C21.0219 20.6742 21.0219 20.8674 21.0219 20.906C21.0606 21.022 21.4857 21.447 21.988 21.8721C21.4857 21.3311 21.0606 20.9833 21.0219 20.8287Z" fill="#379537"/>
<path d="M21.988 21.8721C22.0266 21.9107 22.0653 21.9494 22.1039 21.988C22.7609 22.7609 23.4178 23.7269 23.4951 23.8042C23.4951 23.8042 23.4951 23.7269 23.4564 23.6497L22.5677 22.4131C22.3744 22.2199 22.1812 22.0653 21.988 21.8721Z" fill="#379537"/>
<path d="M21.0605 20.1333C21.0605 20.1333 21.0605 20.0946 21.0992 20.0173C21.0992 20.0173 21.0992 20.0173 21.0605 20.0173C21.0219 20.1719 21.0219 20.3265 20.9832 20.4811C21.0219 20.3651 21.0605 20.2492 21.0605 20.1333Z" fill="#379537"/>
<path d="M21.1379 19.824C21.0992 19.8626 21.0992 19.9013 21.0992 19.9399C21.0992 19.9399 21.0992 19.9399 21.1379 19.9399C21.0992 19.9013 21.1379 19.8626 21.1379 19.824Z" fill="#379537"/>
<path d="M21.0999 20.0179V19.9785C21.0999 19.9785 21.0999 19.9785 21.0605 19.9785C21.0605 19.9785 21.0605 19.9785 21.0999 20.0179C21.0605 20.0179 21.0999 20.0179 21.0999 20.0179Z" fill="#379537"/>
<path d="M23.4564 23.6883C23.4178 23.5337 23.3792 23.3019 23.3019 22.9927C23.1087 22.8382 22.8382 22.6063 22.6063 22.4131L23.4564 23.6883Z" fill="#379537"/>
<path d="M21.0605 20.1333C21.0605 20.0946 21.0605 20.056 21.0992 20.0173C21.0605 20.0946 21.0605 20.1333 21.0605 20.1333Z" fill="#379537"/>
<path d="M21.0606 20.1331C21.0219 20.249 21.0219 20.3649 21.0219 20.4808C21.0219 20.5968 21.0219 20.7127 21.0219 20.8286C21.0606 20.9832 21.4856 21.3696 21.9493 21.872C22.1426 22.0266 22.3744 22.2198 22.5676 22.3744L21.0606 20.1331Z" fill="#379537"/>
<path d="M21.1379 19.824C21.0992 19.8626 21.0992 19.9013 21.0992 19.9399C21.1379 19.9013 21.1379 19.8626 21.1379 19.824Z" fill="#379537"/>
<path d="M21.0992 20.0173C21.0992 20.056 21.0992 20.0946 21.0605 20.1333L22.5676 22.4132C22.8381 22.6064 23.07 22.8383 23.2632 22.9929C23.0314 22.1814 22.529 20.9061 21.3697 20.0173C21.2924 20.0173 21.1765 20.0173 21.0992 20.0173Z" fill="#379537"/>
<path d="M21.0992 19.9399C21.1765 19.9399 21.2538 19.9399 21.3311 19.9399C21.2924 19.9013 21.2151 19.8626 21.1379 19.824C21.1379 19.8626 21.1379 19.9013 21.0992 19.9399Z" fill="#379537"/>
<path d="M21.0992 19.9399V19.9786C21.2151 19.9786 21.2924 19.9786 21.4084 19.9786C21.3697 19.9786 21.3697 19.9399 21.3311 19.9399C21.2538 19.9786 21.1765 19.9399 21.0992 19.9399Z" fill="#379537"/>
<path d="M21.8721 25.7364C21.9107 25.6977 21.9494 25.6204 21.988 25.5818C21.447 26.316 21.0992 26.9343 20.906 27.398C21.1379 26.9343 21.4857 26.2774 21.8721 25.7364Z" fill="white"/>
<path d="M20.1718 21.4084C19.4375 21.2151 18.4328 21.2151 17.5054 21.5629H17.544C17.544 21.5629 19.0125 21.6402 19.9785 23.3405C21.1765 25.3886 20.7128 27.4367 20.5582 28.0163C20.906 27.0889 21.6788 25.6205 23.1086 24.1907C23.0313 23.9202 22.2971 21.9494 20.1718 21.4084Z" fill="white"/>
<path d="M23.1086 24.1907C21.6402 25.6591 20.906 27.0889 20.5582 28.0164C20.5582 28.0164 20.7127 27.7459 20.906 27.3594C21.0992 26.8957 21.447 26.2774 21.988 25.5432C22.4517 24.8863 23.1086 24.2293 23.1086 24.1907C23.1086 24.2293 23.1086 24.2293 23.1086 24.1907Z" fill="white"/>
<path d="M20.4809 28.0549C20.4423 28.0549 20.4036 28.0549 20.365 28.0549C20.4036 28.0549 20.4423 28.0936 20.4809 28.1322C20.4809 28.0936 20.4809 28.0936 20.5196 28.0549C20.5196 28.0549 20.5196 28.0549 20.4809 28.0549Z" fill="#7299CF"/>
<path d="M20.5203 28.0549C20.5203 28.0943 20.5203 28.0943 20.4809 28.1337C20.5203 28.0943 20.5203 28.0549 20.5203 28.0549Z" fill="#7299CF"/>
<path d="M16.1142 28.2095C16.1536 28.2095 16.1536 28.2095 16.1142 28.2095C16.1536 28.2488 16.1929 28.2488 16.1929 28.2882C16.1929 28.2488 16.1536 28.2095 16.1142 28.2095Z" fill="#7299CF"/>
<path d="M16.2688 22.2199C16.2688 22.2199 16.3074 22.2199 16.2688 22.2199C16.6552 21.9108 17.0803 21.7176 17.5054 21.563C17.4281 21.563 17.1962 21.6403 16.8871 21.7948C16.6552 21.9108 16.462 22.0654 16.2688 22.2199Z" fill="#7299CF"/>
<path d="M16.8871 21.7949C16.6939 21.9109 16.4234 22.0268 16.1915 22.22C16.1915 22.22 16.2302 22.22 16.3075 22.2586C16.462 22.0654 16.6552 21.9109 16.8871 21.7949Z" fill="#7299CF"/>
<path d="M14.8776 26.0454C15.0708 27.2433 15.6891 27.9003 16.1142 28.2481C15.6891 27.8616 15.1095 27.2047 14.8776 26.0454Z" fill="#7299CF"/>
<path d="M20.5196 28.0164C20.6741 27.3981 21.1378 25.3887 19.9399 23.3406C18.9738 21.6403 17.5054 21.563 17.5054 21.563C17.5054 21.563 17.5054 21.563 17.4667 21.563C17.0417 21.7176 16.6166 21.9494 16.2688 22.2199C16.5779 22.2972 17.4667 22.5677 18.2396 23.4951C18.5101 23.2633 18.9738 23.2633 19.2443 23.4951C19.5535 23.7657 19.5921 24.268 19.283 24.5772C19.167 24.6931 19.0511 24.7704 18.9352 24.809C19.4375 26.3934 18.8965 27.6686 18.7033 28.0164C19.283 27.9778 19.824 27.9778 20.3263 28.0164C20.3263 28.0164 20.3263 28.0164 20.365 28.0164C20.4036 28.0164 20.4423 28.0164 20.4809 28.0164C20.5196 28.055 20.5196 28.055 20.5196 28.0164C20.5196 28.055 20.5196 28.0164 20.5196 28.0164Z" fill="#7299CF"/>
<path d="M14.8776 24.6545C14.9936 23.4179 15.6119 22.6837 16.1915 22.22C16.1915 22.22 14.8004 23.0701 14.839 25.0409C14.839 25.4274 14.8776 25.7365 14.9163 26.0456C14.839 25.6206 14.8004 25.1955 14.8776 24.6545Z" fill="#1A1919"/>
<path d="M15.8437 22.645C13.757 25.0409 15.4573 27.4368 16.1142 28.2097C16.1529 28.2483 16.1915 28.2483 16.1915 28.287C15.5346 27.63 14.4526 26.2002 15.0709 24.0748C15.3027 23.2633 15.7278 22.6837 16.2301 22.22C16.1529 22.3745 15.9983 22.4905 15.8437 22.645Z" fill="#1A1919"/>
<path d="M15.8437 22.6449C15.9983 22.4903 16.1142 22.3357 16.2688 22.2198C16.2302 22.2198 16.1915 22.2198 16.1529 22.1812C15.5732 22.6449 14.9936 23.3791 14.839 24.6157C14.8004 25.1567 14.8004 25.5818 14.8777 26.0068C15.1095 27.2048 15.6892 27.8231 16.1142 28.1708C15.4573 27.4366 13.757 25.0407 15.8437 22.6449Z" fill="#1A1919"/>
<path d="M15.1095 24.0747C14.4912 26.1614 15.5732 27.6299 16.2301 28.2868C17.0803 28.1709 17.8918 28.0936 18.7033 28.0936C18.8965 27.7458 19.4375 26.4706 18.9352 24.8862C18.7033 24.9635 18.4328 24.8862 18.2009 24.7316C17.8918 24.4611 17.8532 23.9588 18.1623 23.6496C18.2009 23.611 18.2009 23.611 18.2396 23.5723C17.5054 22.6449 16.6166 22.3358 16.2688 22.2971C15.7664 22.6836 15.3414 23.2632 15.1095 24.0747Z" fill="#1A1919"/>
<path d="M18.9352 24.8476C19.0898 24.8089 19.2057 24.7316 19.283 24.6157C19.5535 24.3066 19.5535 23.8042 19.2443 23.5337C18.9738 23.2632 18.5101 23.2632 18.2396 23.5337C18.4328 23.7655 18.6261 24.036 18.7806 24.3838C18.8579 24.5384 18.8966 24.693 18.9352 24.8476Z" fill="white"/>
<path d="M18.2396 24.6544C18.4328 24.8476 18.7033 24.8863 18.9738 24.809C18.9352 24.6544 18.8579 24.4998 18.8193 24.3453C18.6647 23.9975 18.4715 23.727 18.2782 23.4951C18.2396 23.5338 18.2396 23.5338 18.201 23.5724C17.8918 23.9202 17.9305 24.3839 18.2396 24.6544Z" fill="white"/>
<path d="M12.3272 45.1739C12.3272 45.1352 12.3272 45.0966 12.3272 45.0966C12.3272 45.0966 12.3272 45.0966 11.6316 44.7875C10.9361 44.4783 8.81069 43.5895 8.11511 40.6526C7.80597 39.3774 8.03783 36.1314 8.03783 36.1314C8.03783 36.1314 7.9219 35.3585 7.84461 34.1992C7.80597 34.2765 7.76732 34.3924 7.76732 34.4697C6.95582 37.2134 7.30361 40.2276 8.84933 42.5075C9.73813 43.8214 11.0134 44.8261 12.3659 45.2512C12.2886 45.2512 12.2886 45.2125 12.3272 45.1739C12.2886 45.2125 12.2886 45.1739 12.3272 45.1739Z" fill="#2E6D2F"/>
<path d="M16.7712 28.6734C16.6939 28.712 16.3847 28.712 15.9983 28.5574L15.2254 28.7507C15.2641 28.7507 15.2641 28.7893 15.2641 28.7893L14.7617 28.9052L15.0322 29.0212L19.8626 28.2483L17.1576 28.4415C17.003 28.5188 16.8485 28.5961 16.7712 28.6734Z" fill="#2E6D2F"/>
<path d="M8.07644 40.6527C8.77202 43.5895 10.8974 44.4783 11.593 44.7875C12.2885 45.0966 12.2885 45.0966 12.2885 45.0966C12.2885 45.0966 12.2885 45.1353 12.2885 45.1739C12.4045 45.0966 12.9455 45.2126 13.4865 45.2126C13.9889 45.2512 14.4912 45.1739 14.4526 45.2898C15.4186 45.1353 16.1529 44.6715 16.7712 44.3238C16.7712 44.3238 15.2641 45.0193 14.4526 45.058C12.2113 45.2126 10.5882 44.0533 9.58353 42.7007C7.80594 40.3822 7.84458 36.6338 8.5788 34.4697C9.96996 30.2963 15.7278 28.5187 20.1718 28.48C20.2491 28.48 20.2877 28.48 20.365 28.4414V28.4028C20.4036 28.3255 20.4036 28.2482 20.4423 28.1709L19.824 28.2868L14.9936 29.0597L14.7231 28.9438H14.6844L14.1821 28.7119C11.6316 29.3688 9.27438 30.76 8.07644 33.465C8.15373 33.7742 8.26966 34.0833 8.38559 34.3925C8.46287 34.5857 8.07644 34.7402 7.99915 34.5084C7.92187 34.3538 7.88322 34.1992 7.84458 34.0447C7.84458 34.0833 7.80594 34.1606 7.80594 34.1992C7.88323 35.3972 7.99915 36.1314 7.99915 36.1314C7.99915 36.1314 7.7673 39.3774 8.07644 40.6527Z" fill="#2E6D2F"/>
<path d="M14.8776 28.5188C14.6458 28.5574 14.4139 28.6347 14.2207 28.6734L14.7231 28.9052L15.2254 28.7893C15.1481 28.7507 15.0322 28.6347 14.8776 28.5188Z" fill="#2E6D2F"/>
<path d="M14.7617 45.3285C15.6505 45.0966 16.8098 44.3237 16.8098 44.3237C16.1915 44.6715 15.4573 45.1352 14.4912 45.2898C14.4912 45.3285 14.4912 45.3285 14.4912 45.3671C14.5685 45.3671 14.6458 45.3285 14.7617 45.3285Z" fill="#2E6D2F"/>
<path d="M20.4809 28.1717C20.4809 28.1717 20.5203 28.1323 20.4809 28.1717C20.4809 28.1323 20.4809 28.1323 20.4809 28.1323C20.5203 28.1323 20.5203 28.1323 20.4809 28.1717Z" fill="#2E6D2F"/>
<path d="M20.5196 28.1323C20.5196 28.1323 20.4809 28.171 20.5196 28.1323L20.4809 28.171C20.4423 28.2483 20.4036 28.3255 20.4036 28.4028V28.4415C20.5582 28.3642 20.5968 28.2096 20.5196 28.1323Z" fill="#2E6D2F"/>
<path d="M12.3279 45.1738C12.2885 45.1738 12.2885 45.2132 12.3279 45.1738C12.2885 45.2132 12.2885 45.2132 12.2885 45.2526H12.3279C12.3279 45.2132 12.3279 45.2132 12.3279 45.1738Z" fill="#2E6D2F"/>
<path d="M12.7136 45.2512C13.3705 45.4058 13.9888 45.3672 14.4912 45.2899C14.5298 45.1739 14.0275 45.2512 13.5251 45.2126C12.9841 45.1739 12.4431 45.0967 12.3272 45.1739C12.3272 45.2126 12.3272 45.2126 12.3272 45.2512C12.4431 45.2899 12.559 45.3285 12.675 45.3672C12.7136 45.2899 12.7136 45.2512 12.7136 45.2512Z" fill="#2E6D2F"/>
<path d="M12.7136 45.2512C12.7136 45.2512 12.7136 45.2899 12.7136 45.3285C13.2933 45.4444 13.9116 45.4831 14.4912 45.3672C14.4912 45.3285 14.4912 45.3285 14.4912 45.2899C13.9502 45.4058 13.3706 45.4058 12.7136 45.2512Z" fill="#2E6D2F"/>
<path d="M7.99915 34.5085C8.07643 34.7017 8.46287 34.5857 8.38558 34.3925C8.26965 34.0834 8.15372 33.7742 8.07643 33.4651C7.99915 33.6583 7.92186 33.8515 7.84457 34.0834C7.88322 34.1993 7.9605 34.3539 7.99915 34.5085Z" fill="#2E6D2F"/>
<path d="M16.6939 28.6733C16.6939 28.6733 16.5393 28.5574 16.2688 28.3255C16.2302 28.3255 16.2302 28.2869 16.1915 28.2869C16.1915 28.2869 16.1915 28.2869 16.1529 28.2869C16.2688 28.4028 16.3461 28.4801 16.3461 28.4801L15.9597 28.596C16.3461 28.7119 16.6552 28.7506 16.7325 28.7119C16.8484 28.6347 16.9644 28.5574 17.119 28.5187H17.003C16.8871 28.5187 16.7712 28.596 16.6939 28.6733Z" fill="#2E6D2F"/>
<path d="M15.2254 28.7893L14.7231 28.9052H14.7617L15.2254 28.7893C15.2641 28.7893 15.2254 28.7893 15.2254 28.7893Z" fill="#2E6D2F"/>
<path d="M14.8776 28.5188C15.0322 28.6347 15.1481 28.7506 15.2254 28.7893L15.9983 28.596C15.8437 28.5574 15.7278 28.4801 15.5732 28.4028C15.3027 28.4028 15.1095 28.4801 14.8776 28.5188Z" fill="#2E6D2F"/>
<path d="M16.1915 28.2869C15.9597 28.3255 15.7664 28.3642 15.5346 28.4028C15.6891 28.4801 15.8437 28.5574 15.9597 28.596L16.3461 28.4801C16.3847 28.4414 16.3074 28.4028 16.1915 28.2869Z" fill="#2E6D2F"/>
<path d="M16.6166 28.4801C16.6166 28.4801 16.5779 28.4802 16.5393 28.4415C16.5393 28.4415 16.5007 28.4415 16.5007 28.4029C16.5007 28.4029 16.462 28.4029 16.462 28.3642C16.4234 28.3256 16.3461 28.2869 16.2688 28.2483C16.5007 28.4802 16.6939 28.5961 16.6939 28.5961C16.7712 28.5188 16.8871 28.4802 17.003 28.4029L16.6166 28.4801C16.6552 28.5188 16.6166 28.4801 16.6166 28.4801Z" fill="#2E6D2F"/>
<path d="M20.4036 28.0549C20.0945 28.0549 19.3989 28.0936 18.6647 28.1709L17.5054 28.3641C17.3895 28.4027 17.2735 28.4414 17.1576 28.48L19.8626 28.2868L20.4809 28.1709C20.4809 28.1709 20.4809 28.1322 20.5196 28.1322C20.4809 28.0549 20.4423 28.0549 20.4036 28.0549Z" fill="#2E6D2F"/>
<path d="M20.5203 28.0935C20.5203 28.0935 20.5203 28.1329 20.4809 28.1329C20.5203 28.1329 20.5203 28.1329 20.5203 28.0935Z" fill="#2E6D2F"/>
<path d="M17.0417 28.4799H17.1576C17.2735 28.4413 17.3894 28.4027 17.5054 28.364L17.2349 28.4027C17.1576 28.4027 17.0803 28.4413 17.0417 28.4799Z" fill="#2E6D2F"/>
<path d="M16.2301 28.2869C16.2301 28.2869 16.2695 28.3262 16.3089 28.3262C16.2695 28.2869 16.2301 28.2869 16.2301 28.2869Z" fill="#2E6D2F"/>
<path d="M18.6647 28.1323C18.6647 28.1323 18.6647 28.1709 18.6647 28.1323C19.3989 28.055 20.0945 28.0164 20.4036 28.0164C20.0558 28.055 19.3603 28.055 18.6647 28.1323Z" fill="#2E6D2F"/>
<path d="M16.2688 28.2869C16.2688 28.2869 16.2688 28.3255 16.2688 28.2869C16.3461 28.3255 16.4234 28.3642 16.462 28.4028C16.4234 28.4028 16.3461 28.3642 16.2688 28.2869Z" fill="#2E6D2F"/>
<path d="M16.5007 28.4414C16.5007 28.4414 16.54 28.4414 16.54 28.4808C16.54 28.4414 16.54 28.4414 16.5007 28.4414Z" fill="#2E6D2F"/>
<path d="M17.0417 28.4801C17.119 28.4415 17.1962 28.4415 17.2735 28.4028L16.6552 28.5188L17.0417 28.4801Z" fill="#2E6D2F"/>
<path d="M18.7033 28.055C18.6647 28.0936 18.6647 28.1323 18.6647 28.1323C19.3603 28.055 20.0558 28.0164 20.4036 28.0164C20.4036 28.0164 20.4036 28.0164 20.365 28.0164C19.824 28.0164 19.283 28.0164 18.7033 28.055Z" fill="#2E6D2F"/>
<path d="M16.462 28.4028C16.462 28.4028 16.5014 28.4028 16.5014 28.4422C16.5014 28.4422 16.5014 28.4422 16.462 28.4028Z" fill="#2E6D2F"/>
<path d="M16.6166 28.48C16.6166 28.48 16.6568 28.5202 16.6166 28.48C16.6568 28.5202 16.6166 28.48 16.6166 28.48Z" fill="#2E6D2F"/>
<path d="M16.5393 28.48C16.5787 28.48 16.5787 28.5194 16.618 28.5194C16.618 28.48 16.5787 28.48 16.5393 28.48Z" fill="#2E6D2F"/>
<path d="M17.5054 28.3641L18.6647 28.1709C18.626 28.1709 18.5874 28.1709 18.5101 28.1709C18.1623 28.2095 17.8145 28.2868 17.5054 28.3641Z" fill="#2E6D2F"/>
<path d="M16.2695 28.287C16.2301 28.2477 16.2301 28.287 16.2301 28.287H16.2695Z" fill="#2E6D2F"/>
<path d="M17.2349 28.4028L17.5054 28.3641C17.8145 28.2868 18.1623 28.2095 18.5487 28.1709C18.0464 28.2095 17.5827 28.2868 17.2349 28.4028Z" fill="#2E6D2F"/>
<path d="M16.2301 28.2481C16.2688 28.2867 16.2688 28.2867 16.2301 28.2481C16.3461 28.3254 16.3847 28.364 16.462 28.4027C16.462 28.4027 16.5006 28.4027 16.5006 28.4413C16.5006 28.4413 16.5393 28.4413 16.5393 28.4799C16.5779 28.4799 16.5779 28.5186 16.6166 28.5186H16.6552L17.2735 28.4027C17.6213 28.2867 18.085 28.2094 18.5487 28.1708C18.5874 28.1708 18.626 28.1708 18.7033 28.1708C18.7033 28.1708 18.7419 28.1321 18.7419 28.0935C17.9304 28.0935 17.0803 28.1321 16.2301 28.2481Z" fill="#2E6D2F"/>
<path d="M22.1425 16.1913C20.2877 16.7324 19.5535 18.5872 19.5535 19.1282C19.1284 18.8191 17.7759 18.3554 16.1528 19.0123C15.1481 19.4374 14.4912 20.133 13.9888 20.9058C14.1048 20.8672 14.182 20.8285 14.298 20.7512C15.4959 19.1282 17.2735 18.7804 18.9352 18.9737C19.167 19.0123 19.4375 19.0509 19.6307 19.1282C19.708 18.8191 19.9785 18.0462 20.906 17.312C22.1425 16.3459 23.611 16.23 24.7703 16.6937C26.5865 17.4279 27.398 18.9737 27.7072 19.9784L27.6685 19.5919C26.0455 16.1527 24.2679 15.5731 22.1425 16.1913Z" fill="#2D6F36"/>
<path d="M27.7458 20.1719C27.8231 20.1719 27.9004 20.1719 27.939 20.1719C27.8617 19.9786 27.7844 19.7854 27.6685 19.6309L27.7072 20.0173L27.7458 20.1719Z" fill="#2D6F36"/>
<path d="M13.2932 22.9541C13.4478 22.4517 13.6024 22.0266 13.7956 21.6016C13.7183 21.6402 13.6797 21.6788 13.6024 21.7175C12.9455 23.3019 12.9841 24.9249 12.9841 24.9249C12.9841 24.9249 13.0227 24.7703 13.1 24.5384C13.1387 24.0747 13.1773 23.5724 13.2932 22.9541Z" fill="#2D6F36"/>
<path d="M14.298 20.7515C14.1821 20.7901 14.1048 20.8288 13.9889 20.906C13.8729 21.0606 13.7956 21.2538 13.7184 21.4084C13.7956 21.3698 13.8729 21.3311 13.9502 21.2925C14.0661 21.0993 14.1821 20.9447 14.298 20.7515Z" fill="#2D6F36"/>
<path d="M27.7458 20.1716V20.2876C27.8231 20.2876 27.8617 20.2876 27.939 20.2876C27.939 20.2489 27.939 20.2103 27.939 20.1716C27.8617 20.1716 27.8231 20.1716 27.7458 20.1716Z" fill="#2D6F36"/>
<path d="M27.7845 20.4808C27.7845 20.4808 27.9004 20.4035 27.939 20.2876C27.8617 20.2876 27.8231 20.2876 27.7458 20.2876L27.7845 20.4808Z" fill="#2D6F36"/>
<path d="M13.7957 21.6403C13.8729 21.5243 13.9116 21.4084 13.9889 21.2925C13.9116 21.3311 13.8343 21.3698 13.757 21.4084C13.7184 21.5243 13.6411 21.6403 13.6024 21.7562C13.6797 21.7176 13.7184 21.6789 13.7957 21.6403Z" fill="#2D6F36"/>
<path d="M22.2971 16.887C24.9248 16.1142 26.2387 17.6599 27.5912 20.1717C27.6299 20.1717 27.6685 20.1717 27.7458 20.1717V20.0171C27.398 19.0124 26.6251 17.4667 24.8089 16.7325C23.6883 16.2687 22.1812 16.3847 20.9446 17.3507C20.0172 18.085 19.7467 18.8578 19.6694 19.167C19.8626 19.2056 20.0558 19.2829 20.249 19.3602C20.4422 18.5487 21.0219 17.2735 22.2971 16.887Z" fill="#2D6F36"/>
<path d="M27.6685 20.2876C27.7072 20.2876 27.7458 20.2876 27.7458 20.2876V20.1716C27.7072 20.1716 27.6685 20.1716 27.5912 20.1716C27.6299 20.2103 27.6299 20.2489 27.6685 20.2876Z" fill="#2D6F36"/>
<path d="M27.6685 20.2876C27.7072 20.3649 27.7458 20.4035 27.7844 20.4808V20.2876C27.7072 20.2876 27.7072 20.2876 27.6685 20.2876Z" fill="#2D6F36"/>
<path d="M15.921 19.7468C18.2396 18.6261 19.6308 19.3217 19.6308 19.3217C19.6308 19.3217 19.6308 19.2444 19.6694 19.1671C19.4375 19.0898 19.2057 19.0512 18.9738 19.0125C17.3508 18.8193 15.5732 19.1671 14.3366 20.7901C14.4526 20.7515 14.5685 20.6742 14.6844 20.6356C15.0322 20.2878 15.4186 19.9786 15.921 19.7468Z" fill="#2D6F36"/>
<path d="M13.9116 21.563C13.8729 21.6016 13.8343 21.6016 13.757 21.6403C13.5638 22.0267 13.4092 22.4904 13.2546 22.9928C13.1773 23.5724 13.1387 24.0748 13.1387 24.5772C13.1387 24.5385 13.1773 24.4612 13.216 24.3839C13.1773 23.4179 13.4092 22.4131 13.9116 21.563Z" fill="#2D6F36"/>
<path d="M14.182 21.1765C14.3366 20.9833 14.4912 20.7901 14.6844 20.6355C14.5685 20.6741 14.4525 20.7128 14.3366 20.7901C14.2207 20.9446 14.1048 21.1379 13.9888 21.2924C14.0275 21.2538 14.1048 21.2151 14.182 21.1765Z" fill="#2D6F36"/>
<path d="M14.1821 21.1765C14.1048 21.2152 14.0275 21.2538 13.9889 21.2924C13.9116 21.4084 13.8729 21.5243 13.7957 21.6402C13.8343 21.6016 13.8729 21.6016 13.9502 21.5629C13.9889 21.4084 14.1048 21.2924 14.1821 21.1765Z" fill="#2D6F36"/>
<path d="M15.921 19.7466C15.4187 19.9785 15.0322 20.2876 14.6844 20.5967C15.1095 20.4035 15.5732 20.249 16.037 20.133C16.1915 20.0557 16.3461 19.9785 16.5007 19.9012C17.3122 19.592 18.0464 19.5534 18.6261 19.6307C19.1671 19.592 19.6694 19.5534 20.1718 19.5534C20.1718 19.4761 20.2104 19.4374 20.2104 19.3602C20.0172 19.2829 19.824 19.2056 19.6308 19.1669C19.5921 19.2829 19.5921 19.3215 19.5921 19.3215C19.5921 19.3215 18.2396 18.6259 15.921 19.7466Z" fill="#2D6F36"/>
<path d="M13.9115 21.5628C13.3705 22.413 13.1387 23.4177 13.1773 24.4224C13.4865 23.6109 14.1048 22.0652 15.0708 20.9832C14.6844 21.1377 14.298 21.3309 13.9115 21.5628Z" fill="#2D6F36"/>
<path d="M20.0558 20.0172V19.9785C20.0172 19.9785 19.9786 19.9785 19.9399 19.9785C20.0172 20.0172 20.0558 20.0172 20.0558 20.0172Z" fill="#2D6F36"/>
<path d="M20.0945 19.9013C20.0945 19.824 20.1331 19.708 20.1718 19.5535C19.6694 19.5535 19.1284 19.5921 18.626 19.6308C19.1284 19.6694 19.5535 19.7853 19.7853 19.9013C19.8626 19.9013 19.9785 19.9013 20.0945 19.9013Z" fill="#2D6F36"/>
<path d="M16.0369 20.1331C15.5732 20.249 15.1095 20.4036 14.6844 20.5968C14.4912 20.79 14.3366 20.9446 14.1821 21.1378C14.5685 20.9446 14.9936 20.7513 15.4187 20.5968C15.6119 20.4422 15.8051 20.2876 16.0369 20.1331Z" fill="#2D6F36"/>
<path d="M15.1095 20.9446C15.2255 20.8287 15.3027 20.7128 15.4187 20.6355C14.9936 20.7901 14.5685 20.9833 14.1821 21.1765C14.1048 21.2924 13.9889 21.4084 13.9116 21.5629C14.298 21.3311 14.6845 21.1379 15.1095 20.9446Z" fill="#2D6F36"/>
<path d="M20.0559 19.9787C20.0559 19.9787 20.0559 19.94 20.0559 19.9014C19.9399 19.9014 19.8626 19.9014 19.7467 19.9014C19.824 19.94 19.9013 19.94 19.9399 19.9787C19.9786 19.9787 20.0172 19.9787 20.0559 19.9787Z" fill="#2D6F36"/>
<path d="M0 73.4221H8.96522V75.9339H3.05281V78.8322H7.9605V81.344H3.05281V84.7059H9.04251V87.2177H0V73.4221Z" fill="#2E6D2F"/>
<path d="M19.3989 87.1404H12.9455L12.7909 90H10.2018V84.8218H11.2065C11.4384 84.5513 11.6316 84.2035 11.7862 83.7398C11.9408 83.3147 12.0567 82.7737 12.1726 82.194C12.2885 81.5757 12.3658 80.8415 12.4045 80.03C12.4431 79.2185 12.5204 78.2524 12.5977 77.1704H20.3263V84.8218H22.1426V90H19.5535L19.3989 87.1404ZM17.3508 79.5276H15.0709C14.9936 80.7642 14.9163 81.8076 14.7617 82.6964C14.6071 83.5852 14.4139 84.2808 14.1821 84.8604H17.3122V79.5276H17.3508Z" fill="#2E6D2F"/>
<path d="M29.0597 87.1404C29.021 86.9858 29.021 86.8312 28.9824 86.5994C28.9438 86.3675 28.9051 86.1357 28.9051 85.9425C28.6346 86.3289 28.2868 86.638 27.8231 86.9085C27.3594 87.179 26.7411 87.3336 26.0069 87.3336C25.5818 87.3336 25.1954 87.295 24.8089 87.179C24.4225 87.0631 24.0747 86.8699 23.8042 86.638C23.4951 86.4062 23.2632 86.097 23.1086 85.7492C22.9154 85.4014 22.8381 84.9764 22.8381 84.474C22.8381 83.4306 23.2246 82.6191 24.0361 82.0008C24.8476 81.3826 26.0842 81.1121 27.7845 81.1121H28.7892V80.8802C28.7892 80.2619 28.6346 79.8368 28.3255 79.6436C28.0163 79.4504 27.5526 79.3345 26.973 79.3345C26.3933 79.3345 25.8523 79.4118 25.3499 79.5663C24.8476 79.7209 24.3839 79.9141 23.9588 80.146L23.3791 77.866C23.8429 77.6342 24.4225 77.4409 25.1181 77.2864C25.8137 77.1318 26.5865 77.0159 27.398 77.0159C28.055 77.0159 28.6733 77.0932 29.2143 77.2091C29.7553 77.325 30.219 77.5569 30.6054 77.866C30.9918 78.1752 31.301 78.523 31.4942 79.0253C31.6874 79.489 31.8034 80.0687 31.8034 80.687V85.556C31.8034 85.6719 31.8034 85.7879 31.8034 85.9425C31.8034 86.097 31.8034 86.2516 31.8034 86.4062C31.8034 86.5607 31.8034 86.7153 31.842 86.8312C31.842 86.9472 31.842 87.0631 31.8806 87.179H29.0597V87.1404ZM26.9343 85.3242C27.4367 85.3242 27.8231 85.2082 28.0936 84.9764C28.4028 84.7445 28.596 84.474 28.7505 84.2035V82.7351H27.8231C27.0889 82.7351 26.5865 82.851 26.2387 83.1215C25.8909 83.3534 25.7364 83.7011 25.7364 84.1262C25.7364 84.5127 25.8523 84.8218 26.0455 85.015C26.2774 85.2082 26.5865 85.3242 26.9343 85.3242Z" fill="#2E6D2F"/>
<path d="M42.1984 87.1404H35.7836L35.6291 90H33.04V84.8218H34.0061C34.2379 84.5513 34.4311 84.2035 34.5857 83.7398C34.7403 83.3147 34.8562 82.7737 34.9721 82.194C35.0881 81.5757 35.1654 80.8415 35.204 80.03C35.2426 79.2185 35.3199 78.2524 35.3972 77.1704H43.1259V84.8218H44.9421V90H42.353L42.1984 87.1404ZM40.1503 79.5276H37.8704C37.7931 80.7642 37.7158 81.8076 37.5612 82.6964C37.4067 83.5852 37.2134 84.2808 36.9816 84.8604H40.1117V79.5276H40.1503Z" fill="#2E6D2F"/>
<path d="M46.1014 77.209H49.0383V83.3146L53.2504 77.209H56.11V87.1789H53.2117V81.0733L49.0383 87.1789H46.14V77.209H46.1014Z" fill="#2E6D2F"/>
<path d="M61.7132 83.9329C61.4814 85.2081 61.0563 86.0583 60.438 86.5606C59.8197 87.0244 59.1628 87.2562 58.4285 87.2562C58.158 87.2562 57.9262 87.2176 57.6557 87.1789L57.3465 84.6671C57.5784 84.7058 57.8103 84.7058 58.0035 84.6671C58.1967 84.6285 58.3899 84.5898 58.5445 84.4739C58.699 84.358 58.815 84.2034 58.9309 84.0102C59.0468 83.817 59.1241 83.5465 59.1628 83.2373C59.2787 82.619 59.356 81.8075 59.3946 80.7642C59.4333 79.7594 59.4333 78.5615 59.4333 77.209H67.2392V87.1789H64.2637V79.5276H62.061C62.0224 80.4164 61.9837 81.1892 61.9451 81.9235C61.9064 82.6577 61.8291 83.3146 61.7132 83.9329Z" fill="#2E6D2F"/>
</svg>
