<svg width="238" height="55" viewBox="0 0 238 55" fill="none" xmlns="http://www.w3.org/2000/svg">
<rect x="3" y="4" width="235" height="51" fill="#A71616"/>
<rect width="235" height="51" fill="#DE2626"/>
<path d="M74.8282 33H71.1742V22.101H66.1552V33H62.5222V18.993H74.8282V33ZM92.5856 26.007C92.5856 28.079 91.8506 29.822 90.3806 31.236C88.9246 32.622 87.0836 33.315 84.8576 33.315C82.6316 33.315 80.7906 32.622 79.3346 31.236C77.8646 29.822 77.1296 28.079 77.1296 26.007C77.1296 25.041 77.3116 24.096 77.6756 23.172C78.0536 22.248 78.6066 21.443 79.3346 20.757C80.7906 19.371 82.6316 18.678 84.8576 18.678C87.0836 18.678 88.9246 19.371 90.3806 20.757C91.1086 21.443 91.6546 22.248 92.0186 23.172C92.3966 24.096 92.5856 25.041 92.5856 26.007ZM84.8576 22.206C83.7096 22.206 82.7646 22.577 82.0226 23.319C81.2806 24.047 80.9096 24.964 80.9096 26.07C80.9096 27.092 81.2806 27.96 82.0226 28.674C82.7926 29.416 83.7376 29.787 84.8576 29.787C86.0056 29.787 86.9436 29.423 87.6716 28.695C88.4276 27.939 88.8056 27.043 88.8056 26.007C88.8056 24.943 88.4276 24.047 87.6716 23.319C86.8876 22.577 85.9496 22.206 84.8576 22.206ZM96.2691 18.993H107.063V33H103.409V22.059H99.8811V27.162C99.8811 29.402 99.3911 31.012 98.4111 31.992C97.5851 32.79 96.4931 33.189 95.1351 33.189C94.5751 33.189 94.0221 33.126 93.4761 33V29.64C93.7701 29.738 94.0501 29.787 94.3161 29.787C94.8201 29.787 95.2261 29.647 95.5341 29.367C96.0241 28.919 96.2691 28.037 96.2691 26.721V18.993ZM108.528 18.993H112.602L115.269 25.23L117.6 18.993H121.485L115.185 33H111.342L113.295 29.073L108.528 18.993ZM130.348 33V27.498C129.424 27.638 128.451 27.708 127.429 27.708C125.623 27.708 124.349 27.358 123.607 26.658C122.865 25.958 122.494 24.852 122.494 23.34V18.993H126.148V22.794C126.148 23.48 126.288 23.963 126.568 24.243C126.862 24.537 127.436 24.684 128.29 24.684C129.032 24.684 129.718 24.635 130.348 24.537V18.993H134.002V33H130.348ZM136.945 18.993H140.599V27.813L145.849 18.993H149.566V33H145.912V24.18L140.662 33H136.945V18.993ZM160.785 22.08H157.803V33H154.17V22.08H151.188V18.993H160.785V22.08ZM162.395 33V18.993H166.049V24.453H167.813C169.717 24.453 171.11 24.887 171.992 25.755C172.734 26.497 173.105 27.484 173.105 28.716C173.105 29.962 172.748 30.942 172.034 31.656C171.138 32.552 169.661 33 167.603 33H162.395ZM166.049 30.186H167.456C168.226 30.186 168.751 30.046 169.031 29.766C169.283 29.514 169.409 29.164 169.409 28.716C169.409 28.268 169.276 27.925 169.01 27.687C168.716 27.407 168.198 27.267 167.456 27.267H166.049V30.186Z" fill="white"/>
</svg>
