<svg width="27" height="28" viewBox="0 0 27 28" fill="none" xmlns="http://www.w3.org/2000/svg">
<path d="M15.567 15.642H17.151C17.151 16.6687 16.8503 17.4973 16.249 18.128C15.6917 18.7147 14.9363 19.008 13.983 19.008C13.0443 19.008 12.2817 18.7147 11.695 18.128C11.1083 17.5413 10.815 16.786 10.815 15.862C10.815 14.6007 11.431 13.6913 12.663 13.134C12.9563 13.002 13.3157 12.8773 13.741 12.76C14.181 12.628 14.4377 12.5473 14.511 12.518C15.4497 12.1807 15.919 11.5353 15.919 10.582C15.919 9.90733 15.7283 9.394 15.347 9.042C15.0097 8.734 14.5623 8.58 14.005 8.58C13.4037 8.58 12.9417 8.734 12.619 9.042C12.2377 9.40867 12.047 9.9 12.047 10.516C12.047 10.8387 12.091 11.1467 12.179 11.44H10.551C10.4923 11.1613 10.463 10.8387 10.463 10.472C10.463 9.47467 10.7417 8.68267 11.299 8.096C11.915 7.42133 12.8097 7.084 13.983 7.084C15.083 7.084 15.9483 7.39933 16.579 8.03C17.2243 8.67533 17.547 9.54067 17.547 10.626C17.547 11.4913 17.2977 12.21 16.799 12.782C16.3883 13.2513 15.8237 13.618 15.105 13.882C14.9877 13.926 14.819 13.9847 14.599 14.058C14.3937 14.1167 14.203 14.1753 14.027 14.234C13.851 14.2927 13.6823 14.3587 13.521 14.432C12.8023 14.7693 12.443 15.2827 12.443 15.972C12.443 16.4413 12.5897 16.8227 12.883 17.116C13.147 17.38 13.5063 17.512 13.961 17.512C14.4157 17.512 14.775 17.38 15.039 17.116C15.391 16.764 15.567 16.2727 15.567 15.642ZM13.235 21.934C13.015 21.714 12.905 21.4573 12.905 21.164C12.905 20.8707 13.015 20.614 13.235 20.394C13.455 20.174 13.7117 20.064 14.005 20.064C14.2983 20.064 14.555 20.174 14.775 20.394C14.995 20.614 15.105 20.8707 15.105 21.164C15.105 21.4573 14.995 21.714 14.775 21.934C14.555 22.154 14.2983 22.264 14.005 22.264C13.7117 22.264 13.455 22.154 13.235 21.934Z" fill="white"/>
<circle cx="13.5" cy="14.5" r="12.5" stroke="white" stroke-width="2"/>
</svg>
