<svg width="135" height="66" viewBox="0 0 135 66" fill="none" xmlns="http://www.w3.org/2000/svg">
<path d="M62.6107 24.9119C63.4351 24.9778 66.5017 24.7471 67.1942 27.779C70.0959 24.9778 69.5354 21.2868 67.458 19.8368C63.9627 17.3981 60.2365 19.639 59.9068 22.1766C59.676 23.7914 60.6322 24.7471 62.6107 24.9119ZM134.264 20.9243C132.319 20.8584 129.483 24.0221 127.142 24.055C125.592 24.055 125.493 22.9016 126.416 20.9243C129.846 13.6082 125.691 13.8389 124.801 14.531C124.801 14.531 127.768 9.32402 122.525 9.32402C116.095 9.35697 110.358 14.7616 107.39 22.7698C106.302 25.5051 103.895 31.3382 101.356 32.0632C98.9486 32.7223 98.9486 29.5586 97.3988 28.9654C107.687 22.0448 107.819 16.4424 106.203 14.531C104.752 12.8502 99.8719 12.3229 93.8376 18.5845C95.3214 13.048 99.5092 9.65357 100.498 4.08412C101.026 0.82155 98.6189 -2.57285 94.0354 2.86478C90.9358 6.55577 89.3201 13.2787 86.3194 21.88C84.5388 27.1199 80.9775 36.5121 77.779 36.5451C76.3941 36.5451 75.9984 35.3257 76.427 31.8984C77.2514 25.2085 82.6263 17.4969 84.5058 11.9604C85.9237 8.26945 84.5058 6.0944 82.923 5.73189C80.7797 5.33643 77.746 7.3467 75.5038 12.8832C73.7231 16.706 72.2722 21.9789 71.1841 27.9438C70.1949 32.92 66.2379 42.7077 62.4129 42.2134C60.995 42.0157 62.4458 38.4235 64.1935 34.8644C65.6773 31.8325 66.8644 28.1744 63.6989 28.1415C58.8516 28.1415 55.2904 38.1269 54.7298 45.5748C54.466 49.1999 54.3341 53.3853 57.1369 53.3853C60.5993 53.3853 65.0508 49.7602 69.2716 43.4657C69.5683 46.959 74.0529 51.6386 82.6922 39.1156C82.8241 41.027 83.2528 43.8612 84.7036 43.9271C84.7036 43.9271 86.0226 44.2896 87.4076 41.1918C88.7925 38.094 90.2764 34.1723 90.5731 33.4143C91.2986 31.6677 92.6835 31.3382 92.7824 34.3041C92.9143 37.369 93.7387 39.6099 96.2118 39.6099C101.092 39.577 105.313 35.128 106.533 33.4473C107.225 36.0837 113.227 37.0065 119.756 29.1302C120.052 31.2393 121.866 34.2712 130.077 27.8779C135.287 23.8903 135.748 20.9902 134.264 20.9243ZM92.9143 26.0324C92.7165 26.0324 92.3867 25.8676 92.5186 25.538C93.1781 23.8573 94.2333 22.3743 95.5852 21.2209C96.7723 20.1993 98.0254 19.6061 98.9816 19.6061C99.8719 19.6061 100.4 20.1334 100.367 21.0231C100.334 21.7152 99.9049 22.572 99.0806 23.33C96.1458 26.0324 93.1451 26.0324 92.9143 26.0324ZM120.844 17.464C118.041 21.8141 119.03 22.3084 116.986 25.4392C115.337 27.9438 113.029 28.6029 112.171 27.2847C111.314 25.9664 112.171 23.0993 114.117 20.8584C116.062 18.6174 122.13 15.4867 120.844 17.464ZM49.6187 46.201C50.4101 31.6018 58.324 19.4413 58.6208 14.3332C58.7197 12.257 57.6316 10.6422 55.1585 10.7741C51.0037 10.9718 43.5514 16.9037 39.8253 24.3846C37.7479 18.0901 32.7688 21.8141 30.4276 24.5823C30.8562 12.7514 27.229 11.7298 25.1187 11.8286C18.5238 12.1252 11.6321 20.9902 7.87298 27.4494C4.41065 33.3814 -4.36057 51.1113 2.63003 52.1659C4.3447 52.4296 6.12533 50.4522 7.31241 45.9044C11.8629 28.7017 17.3367 24.7471 19.546 24.9119C25.4154 25.3403 17.8313 47.1567 15.2593 54.8353C13.8084 58.9217 12.5883 65.5787 17.2707 65.348C22.4807 65.1173 24.69 51.9682 25.943 44.8169C27.3609 36.9735 29.3724 34.436 31.3509 34.6007C33.692 34.8973 32.7028 39.577 31.153 44.0919C29.7681 48.6726 24.9538 59.9104 30.5924 60.4047C36.2641 60.6025 36.0332 50.3204 37.583 43.8282C39.9572 34.0405 42.6281 27.4494 45.464 28.0097C48.9593 28.7676 40.7816 41.5873 40.221 51.7375C39.7923 59.6138 43.3536 65.348 48.5306 63.1071C54.0044 60.5366 49.1901 54.0773 49.6187 46.201Z" fill="white"/>
</svg>
