<svg width="29" height="29" viewBox="0 0 29 29" fill="none" xmlns="http://www.w3.org/2000/svg">
<circle cx="14.5" cy="14.5" r="13.9" stroke="white" stroke-width="1.2"/>
<path d="M14.8151 14.9472C15.5414 14.9472 16.2515 14.7318 16.8554 14.3283C17.4594 13.9247 17.9301 13.3512 18.208 12.6801C18.486 12.009 18.5587 11.2706 18.417 10.5582C18.2753 9.84582 17.9256 9.19144 17.4119 8.67783C16.8983 8.16422 16.244 7.81445 15.5316 7.67274C14.8192 7.53104 14.0807 7.60376 13.4097 7.88173C12.7386 8.15969 12.165 8.63041 11.7615 9.23435C11.358 9.83829 11.1426 10.5483 11.1426 11.2747C11.1426 12.2487 11.5295 13.1828 12.2182 13.8715C12.907 14.5603 13.8411 14.9472 14.8151 14.9472ZM14.8151 9.80568C15.1056 9.80568 15.3896 9.89184 15.6312 10.0533C15.8728 10.2147 16.0611 10.4441 16.1723 10.7125C16.2835 10.9809 16.3125 11.2763 16.2559 11.5613C16.1992 11.8462 16.0593 12.108 15.8538 12.3134C15.6484 12.5189 15.3866 12.6588 15.1017 12.7155C14.8167 12.7721 14.5213 12.7431 14.2529 12.6319C13.9845 12.5207 13.7551 12.3324 13.5937 12.0908C13.4322 11.8492 13.3461 11.5652 13.3461 11.2747C13.3465 10.8852 13.5014 10.5118 13.7768 10.2364C14.0522 9.96103 14.4256 9.80612 14.8151 9.80568Z" fill="white"/>
<path d="M16.1584 17.9212C16.9779 17.7646 17.7619 17.4598 18.4719 17.0219C18.5869 16.9506 18.6867 16.8572 18.7656 16.7472C18.8444 16.6372 18.9008 16.5127 18.9314 16.3809C18.9621 16.2491 18.9664 16.1125 18.9441 15.979C18.9219 15.8455 18.8735 15.7177 18.8017 15.603C18.73 15.4882 18.6363 15.3888 18.526 15.3103C18.4157 15.2319 18.2911 15.1759 18.1591 15.1458C18.0272 15.1156 17.8906 15.1117 17.7572 15.1345C17.6238 15.1572 17.4961 15.206 17.3816 15.2782C16.6216 15.7414 15.7504 15.9904 14.8604 15.9986C13.9704 16.0069 13.0947 15.7742 12.3262 15.3252C12.0924 15.1869 11.8134 15.1467 11.55 15.2134C11.2867 15.2801 11.0604 15.4482 10.9206 15.6811C10.7808 15.914 10.7388 16.1928 10.8038 16.4566C10.8688 16.7203 11.0355 16.9477 11.2675 17.089C11.9487 17.4914 12.6944 17.773 13.4716 17.9215L11.1499 20.2433C11.0541 20.3387 10.9781 20.4521 10.9262 20.577C10.8743 20.7018 10.8475 20.8357 10.8474 20.9709C10.8473 21.1061 10.8739 21.24 10.9256 21.3649C10.9773 21.4899 11.0532 21.6034 11.1488 21.699C11.2444 21.7946 11.358 21.8703 11.4829 21.922C11.6079 21.9737 11.7418 22.0002 11.877 22C12.0122 21.9998 12.1461 21.973 12.2709 21.921C12.3958 21.8691 12.5091 21.793 12.6045 21.6972L14.8152 19.4865L17.0259 21.6972C17.1213 21.793 17.2346 21.8691 17.3595 21.921C17.4843 21.973 17.6181 21.9998 17.7534 22C17.8886 22.0002 18.0225 21.9737 18.1475 21.922C18.2724 21.8704 18.386 21.7946 18.4816 21.699C18.5772 21.6034 18.6531 21.4899 18.7048 21.365C18.7565 21.24 18.7831 21.1061 18.783 20.9709C18.7829 20.8357 18.7561 20.7018 18.7042 20.577C18.6523 20.4521 18.5763 20.3387 18.4805 20.2433L16.1584 17.9212Z" fill="white"/>
</svg>
